<svg width="179" height="35" viewBox="0 0 179 35" fill="none" xmlns="http://www.w3.org/2000/svg">
<g clip-path="url(#clip0_78_138)">
<path fill-rule="evenodd" clip-rule="evenodd" d="M165.194 9.37717L163.948 9.419L162.751 9.55844L161.608 9.78853L160.521 10.1023L159.482 10.4997L158.511 10.9738L157.595 11.5315L156.749 12.159L155.964 12.8562L155.255 13.6162L154.615 14.4528L154.058 15.3452L153.576 16.2934L153.17 17.2974L152.853 18.3572L152.626 19.4657L152.482 20.6231L152.44 21.8223L152.475 22.9308L152.599 24.0185L152.805 25.0783L153.087 26.1031L153.452 27.0931L153.893 28.0343L154.416 28.9268L155.014 29.7634L155.696 30.5442L156.453 31.2694L157.293 31.9179L158.201 32.5034L159.192 33.0053L160.259 33.4307L161.402 33.7654L162.62 34.0165L163.914 34.1628L165.284 34.2186L166.922 34.1418L168.422 33.9397L169.792 33.633L171.024 33.2286L172.132 32.7613L173.123 32.2455L173.997 31.7016L175.422 30.6071L176.213 29.7844L176.262 29.5613H168.567L168.236 29.5474L166.874 29.2963L165.992 28.9616L165.077 28.4317L164.196 27.6579L163.432 26.5841L162.861 25.1758L162.551 23.377L162.606 22.9657L162.813 22.6171L163.143 22.3801L163.549 22.2964H176L176.392 22.2127L176.716 21.9896L176.922 21.655L176.991 21.2576L176.943 20.3442L176.84 19.2914L176.792 18.9707H163.611L163.178 18.8731L162.84 18.6012L162.641 18.2247L162.627 17.7715L162.95 16.6978L163.453 15.6869L164.12 14.8014L164.926 14.0972L165.855 13.6301L166.887 13.4628H174.692L174.561 13.2746L173.529 12.1939L172.4 11.3363L171.21 10.667L170.012 10.172L168.835 9.81642L167.72 9.58632L166.722 9.45386L165.862 9.39111L165.194 9.37717Z" fill="#0B5430"/>
<path fill-rule="evenodd" clip-rule="evenodd" d="M174.651 27.5185L174.3 27.5395L173.962 27.6996L172.476 28.6062L171.113 29.1569L169.943 29.4428L169.069 29.5474L168.566 29.5613H176.261L175.291 27.8461L174.995 27.616L174.651 27.5185Z" fill="#0B5430"/>
<path fill-rule="evenodd" clip-rule="evenodd" d="M174.692 13.4628H166.887L168.071 13.6301L169.131 14.0903L170.046 14.7875L170.797 15.666L171.375 16.6699L171.747 17.7366V18.1968L171.554 18.5872L171.216 18.8661L170.776 18.9707H176.792L176.661 18.141L176.385 16.9419L175.993 15.7427L175.463 14.5992L174.692 13.4628Z" fill="#0B5430"/>
<path fill-rule="evenodd" clip-rule="evenodd" d="M43.1145 32.7684L43.0662 32.4966L42.9492 32.2526L42.7636 32.0641L41.6966 31.4925L41.1391 30.8162L40.7951 29.9167L40.6161 28.8083L40.5472 27.4836L40.5335 25.9498V17.9737L40.5266 17.4229L40.4372 15.9727L40.0997 14.2437L39.3428 12.4728L38.7507 11.657L37.9936 10.911L37.0575 10.2835L35.9014 9.80248L34.5248 9.48872L32.8866 9.37717L31.9506 9.419L30.9321 9.57238L29.8377 9.89311L28.7088 10.416L27.5664 11.1829L26.4307 12.2497L26.1071 12.4728L25.7355 12.5425L25.3776 12.4449L25.0817 12.1869L24.2144 11.2317L23.2233 10.4997L22.1496 9.9698L21.0415 9.62815L19.9471 9.43294L18.9147 9.37717L17.6414 9.4678L16.3956 9.73971L15.2118 10.165L14.1243 10.7228L13.1539 11.3921L12.6927 11.5803L12.2316 11.4967L11.8805 11.1829L11.7429 10.7019V10.5206L11.6741 10.172L11.4813 9.88614L11.1923 9.69787L10.8481 9.63513L1.29487 9.87917L0.957613 9.94889L0.689186 10.1441L0.510234 10.423L0.441406 10.7646V10.8134L0.489586 11.0923L0.613475 11.3363L0.806191 11.5315L1.05397 11.657L1.9212 12.1172L2.85725 13.7138L3.0362 14.8014L3.10502 16.0564L3.11192 17.4508V26.2355L3.10502 27.595L3.0362 28.8361L2.86415 29.9238L2.51312 30.8301L1.08838 31.9527L0.826842 32.0783L0.620358 32.2733L0.489586 32.5244L0.441406 32.8103L0.510234 33.1518L0.696068 33.4378L0.978261 33.626L1.31552 33.6957H14.0073L14.3514 33.626L14.6268 33.4378L14.8126 33.1518L14.8814 32.8103V32.7823L14.8401 32.5034L14.7093 32.2594L14.5166 32.0641L14.262 31.9388L13.4498 31.5134L12.8923 30.8024L12.5344 29.7285L12.3554 28.2296L12.3073 26.2355V20.1072L12.321 18.8592L12.4174 17.6042L12.6583 16.4468L13.1194 15.4917L13.8697 14.8363L14.9778 14.5992L15.9276 14.7945L16.9462 16.1331L17.1458 17.151L17.2147 18.3293L17.2284 19.5842V26.2355L17.2216 27.4139L17.194 28.5294L17.139 29.7076L17.0426 31.0603L16.8981 32.7196L16.9394 33.096L17.1252 33.4029L17.4074 33.6189L17.7722 33.6957H28.1239L28.4611 33.626L28.7434 33.4378L28.9291 33.1518L28.998 32.8103V32.7755L28.9567 32.5034L28.8327 32.2594L28.6401 32.0641L28.3922 31.9388L27.6007 31.5134L26.706 29.9238L26.5201 28.7386L26.4377 27.2745L26.417 25.5244V20.8253L26.4237 19.654L26.472 18.4478L26.6096 17.2765L26.8919 16.2237L27.3531 15.3731L29.046 14.5992L29.996 14.8084L31.0352 16.2028L31.2487 17.2207L31.3311 18.3293L31.345 19.4448V25.5244L31.3311 26.5982L31.29 27.8042L31.228 29.0733L31.1454 30.356L31.0421 31.5832L30.9182 32.6987L30.9528 33.0821L31.1317 33.3959L31.4207 33.6121L31.7856 33.6957H42.2404L42.5777 33.626L42.8529 33.4378L43.0456 33.1518L43.1145 32.8103V32.7684Z" fill="#0B5430"/>
<path fill-rule="evenodd" clip-rule="evenodd" d="M70.1981 32.8103L69.2414 31.8342L68.8009 31.639L68.2571 31.0951L67.6722 29.3241L67.5139 27.7067L67.4795 25.9008V17.6321L67.3899 16.0355L67.1697 14.8921L66.7361 13.7277L66.2749 13.0305L66.0272 12.654L65.0979 11.7616L64.0448 11.0505L62.9092 10.4927L61.7254 10.0744L60.5208 9.77459L59.3301 9.57238L58.1877 9.44689L57.1277 9.39111L56.1779 9.37717H55.6891L53.9616 9.46083L52.8398 9.55844L51.6352 9.72576L50.3965 9.9698L49.1851 10.3045L48.0632 10.7437L47.0858 11.3015L46.3149 11.9917L45.8124 12.8353L45.6335 13.8393L45.8057 14.6899L46.2667 15.3173L46.9551 15.7008L47.7879 15.8333L48.4211 15.7705L49.3915 15.3871L49.7837 15.15L51.1123 14.1809L52.234 13.5255L53.3697 13.149L54.7257 13.0305L56.3499 13.2746L57.458 13.8951L58.0914 14.7387L58.291 15.6451V22.0733V24.1928L58.2771 25.2317L58.1945 26.3681L57.9605 27.4697L57.5132 28.4178L56.7698 29.0733L55.6617 29.3241L54.5948 29.0662L53.8309 28.369L53.3767 27.3442L53.2251 26.0961L53.4454 24.5971L53.9686 23.5374L54.6087 22.8402L55.4828 22.2476L56.997 21.3273L57.4376 21.2088L57.8572 21.3203L58.1671 21.6271L58.291 22.0733V15.6451L57.6232 17.1161L56.8248 17.6321L55.7581 18.0713L54.4365 18.4687L52.9018 18.8731L52.0757 19.1032L51.1673 19.396L50.2106 19.7516L49.2262 20.1839L48.2491 20.6998L47.306 21.3064L46.4319 22.0035L45.6472 22.8053L44.9866 23.7187L44.4772 24.7505L44.1538 25.9008L44.0366 27.1838L44.1399 28.3412L44.4358 29.4287L44.911 30.4467L45.5441 31.3669L46.3219 32.1828L47.2234 32.88L48.2421 33.4446L49.3502 33.8629L50.5272 34.1279L51.7729 34.2186L53.3767 34.093L54.774 33.7515L55.9646 33.2496L56.9557 32.6638L57.7542 32.0363L58.1394 31.8342L58.5456 31.8411L58.9103 32.0363L59.1445 32.4059L59.5024 33.075L60.0942 33.5911L60.989 33.9326L62.2623 34.1001L63.9622 34.0721L69.3927 33.7444L70.1981 32.88V32.8103Z" fill="#0B5430"/>
<path fill-rule="evenodd" clip-rule="evenodd" d="M83.3442 0.0903931L73.2333 0.334414L72.4419 0.878235L72.3799 1.21987L72.4212 1.49875L72.5451 1.74277L72.7378 1.93799L72.9857 2.06348L73.9768 2.58638L74.5893 3.36726L74.9059 4.35032L75.0298 5.50071L75.0505 6.76962V25.8104L75.0298 27.6231L74.9472 29.0594L74.7545 30.1678L73.8322 31.5693L73.0131 31.9388L72.7515 32.0641L72.5519 32.2594L72.4212 32.5034L72.3799 32.7893V32.8103L72.4488 33.1589L72.6345 33.4378L72.9098 33.626L73.254 33.6957H85.8976L86.2418 33.626L86.5171 33.4378L86.703 33.1589L86.7717 32.8103L86.7236 32.5244L86.5927 32.2733L86.3864 32.0783L85.354 31.597L84.8308 31.0183L84.5073 30.2166L84.3283 29.164L84.2527 27.86L84.239 26.2913V0.975844L84.17 0.627242L83.9774 0.341386L83.6951 0.153142L83.3442 0.0903931Z" fill="#0B5430"/>
<path fill-rule="evenodd" clip-rule="evenodd" d="M126.657 10.6042L126.602 10.3323L126.451 10.1023L126.224 9.95585L125.955 9.90007H117.882L117.613 9.95585L117.386 10.1023L117.235 10.3323L117.18 10.6042V10.918L118.364 11.8662L118.845 12.2985L119.141 12.9329L119.245 13.7905L119.197 14.2785L118.749 16.3283L118.309 17.8273L116.368 23.7187L115.686 24.2067L115.28 24.0673L113.429 17.7366L113.002 16.0843L112.644 14.5574L112.348 13.1839L112.114 11.9777L111.935 10.9807L111.804 10.2138L111.715 9.97676L111.557 9.78852L111.343 9.66997L111.095 9.62814L101.363 9.87916L101.095 9.9419L100.875 10.0953L100.73 10.3184L100.675 10.5903V11.0086L101.859 12.0335L102.485 12.5773L103.07 13.407L103.662 14.6341L104.302 16.3562L104.35 16.5096V16.6769L101.941 23.5653L101.666 23.9278L101.26 24.0324L100.861 23.893L99.2227 18.3014L98.8717 16.893L98.5412 15.5195L98.1696 13.909L97.8047 12.2008L97.4951 10.5554L97.3644 10.2487L97.1235 10.0465L96.8137 9.96979L96.4903 10.0395L88.2583 14.1809L87.873 14.8154L87.9624 15.1709L88.1966 15.4219L88.5199 15.5335L88.8641 15.4637L88.9811 15.408L89.05 15.394L89.0981 15.4219L89.1944 15.6032L89.3527 16.1191L90.0342 18.5454L93.1727 29.4635L93.5238 30.628L94.336 32.2245L95.0035 32.9356L96.6417 33.5982L97.8943 33.6818L99.5529 33.6957H101.356L105.156 24.3392L105.438 23.9766L105.837 23.8651L106.236 23.9976L106.491 24.374L108.04 29.6588L108.556 31.1509L109.134 32.2245L109.808 32.9427L111.639 33.5982L112.871 33.6818L114.372 33.6957H116.127L122.769 16.5862L123.305 15.1918L123.801 14.0763L124.297 13.2048L125.453 12.0474L126.196 11.671L126.382 11.5664L126.527 11.413L126.623 11.2178L126.657 11.0086V10.6042Z" fill="#0B5430"/>
<path fill-rule="evenodd" clip-rule="evenodd" d="M150.472 21.2576L150.32 19.2914L150.141 18.141L149.866 16.9418L149.474 15.7427L148.944 14.5992L148.173 13.4628L148.042 13.2746L147.01 12.1939L145.881 11.3363L145.227 10.9668V18.1968L145.034 18.5872L144.697 18.8661L144.257 18.9707H137.092L136.658 18.8731L136.321 18.6012L136.121 18.2247L136.107 17.7715L136.431 16.6978L136.934 15.6869L137.601 14.8014L138.413 14.0972L139.336 13.6301L140.368 13.4628L141.552 13.6301L142.612 14.0903L143.527 14.7875L144.284 15.666L144.855 16.6699L145.227 17.7366V18.1968V10.9668L143.493 10.172L142.316 9.81642L141.201 9.58632L140.203 9.45386L138.675 9.37717L137.429 9.419L136.238 9.55844L135.089 9.78853L134.001 10.1023L132.962 10.4997L131.992 10.9738L131.076 11.5315L130.23 12.159L129.445 12.8562L128.736 13.6232L128.096 14.4528L127.538 15.3452L127.057 16.2934L126.651 17.2974L126.334 18.3572L126.107 19.4657L125.962 20.6231L125.921 21.8223L125.962 22.9308L126.079 24.0185L126.286 25.0783L126.568 26.1031L126.933 27.0931L127.373 28.0343L127.896 28.9268L128.495 29.7634L129.177 30.5442L129.934 31.2694L130.773 31.9179L131.682 32.5034L132.673 33.0053L133.74 33.4307L134.882 33.7654L136.1 34.0165L137.394 34.1628L138.764 34.2186L140.402 34.1418L141.903 33.9468L143.272 33.633L144.504 33.2286L145.613 32.7613L146.604 32.2455L147.485 31.7016L148.903 30.6071L149.694 29.7844L149.742 29.5613L149.777 29.4148L148.772 27.8461L148.132 27.5185L147.781 27.5395L147.443 27.6996L145.963 28.613L144.594 29.164L143.424 29.4428L142.55 29.5474L142.047 29.5613L141.717 29.5474L140.354 29.2963L139.473 28.9616L138.558 28.4317L137.677 27.6579L136.92 26.5841L136.341 25.1758L136.032 23.377L136.087 22.9657L136.293 22.6171L136.624 22.3801L137.03 22.2964H149.481L149.873 22.2127L150.197 21.9896L150.403 21.655L150.472 21.2576Z" fill="#0B5430"/>
</g>
<defs>
<clipPath id="clip0_78_138">
<rect width="177.751" height="34.1282" fill="white" transform="translate(0.441406 0.0903931)"/>
</clipPath>
</defs>
</svg>
