<svg width="178" height="48" viewBox="0 0 178 48" fill="none" xmlns="http://www.w3.org/2000/svg">
<g clip-path="url(#clip0_78_191)">
<path d="M70.1137 22.1441C63.6376 22.1441 60.0112 26.8815 60.0112 34.5664V44.6728H64.415V34.0401C64.415 28.1449 66.1419 24.5655 70.1139 24.5655C73.8269 24.5655 75.5537 28.1449 75.5537 34.0401V44.6728H79.9575V34.5664C79.9575 26.8815 76.676 22.1441 70.1137 22.1441Z" fill="#E76519"/>
<path d="M93.773 22.1441C88.5059 22.1441 83.6704 26.4604 83.6704 34.0401C83.6704 41.1988 87.6424 45.4096 93.1687 45.4096C96.1045 45.4096 98.3495 43.9357 99.5582 41.1985V44.6725H103.789V34.6716C103.789 26.9865 100.335 22.1441 93.773 22.1441ZM93.773 42.9882C89.8873 42.9882 88.0739 39.8301 88.0739 34.0398C88.0739 28.7763 89.8873 24.5652 93.773 24.5652C97.6587 24.5652 99.3855 28.7763 99.3855 34.0398C99.3855 39.514 97.054 42.9882 93.773 42.9882Z" fill="#E76519"/>
<path d="M136.947 33.5136C136.947 39.4089 135.393 42.9882 131.593 42.9882C127.967 42.9882 126.412 39.4089 126.412 33.5136V22.881H122.009V32.9873C122.009 40.6724 125.117 45.4096 131.593 45.4096C137.897 45.4096 141.35 40.6724 141.35 32.9873V22.881H136.947V33.5136Z" fill="#E76519"/>
<path d="M167.341 22.1441C162.074 22.1441 157.238 26.4604 157.238 34.0401C157.238 41.1988 161.21 45.4096 166.737 45.4096C169.672 45.4096 171.918 43.9357 173.127 41.1985V44.6725H177.357V34.6716C177.357 26.9865 173.903 22.1441 167.341 22.1441ZM167.341 42.9882C163.456 42.9882 161.642 39.8301 161.642 34.0398C161.642 28.7763 163.456 24.5652 167.341 24.5652C171.227 24.5652 172.954 28.7763 172.954 34.0398C172.954 39.514 170.621 42.9882 167.341 42.9882Z" fill="#E76519"/>
<path d="M146.1 32.2502V44.6725H150.503V31.6184C150.503 27.4074 151.28 24.6704 154.821 24.6704C155.252 24.6704 155.77 24.6704 156.288 24.7754V22.5645C155.339 22.2489 154.389 22.1434 153.439 22.1434C149.208 22.1434 146.1 25.0915 146.1 32.2502Z" fill="#E76519"/>
<path d="M116.396 42.8828C114.237 42.8828 112.942 41.1985 112.942 36.0401V25.4075H118.727V22.8809H112.942V17.4068H108.538V35.1982C108.538 42.9885 111.992 45.4096 115.705 45.4096C117.518 45.4096 119.159 44.7779 120.367 43.7253C119.936 43.1992 119.591 42.5674 119.418 41.9358C118.554 42.5674 117.605 42.8828 116.396 42.8828Z" fill="#E76519"/>
<path d="M44.9911 12.151C44.9911 15.2495 43.702 19.0138 42.7849 21.0017C42.2767 22.1036 42.1526 22.3576 42.1526 22.5289C42.1526 22.6493 42.213 22.7519 42.3313 22.7519C42.942 22.7519 48.0302 17.9763 51.6003 17.9763C53.6928 17.9763 55.6072 19.3321 55.6072 22.5338C55.6072 25.8205 53.8237 31.0496 47.8795 34.9314C47.4543 35.2091 46.5631 35.7857 45.938 36.1897C45.1383 36.7065 44.9288 36.9602 44.9288 37.282C44.9288 38.1049 47.2917 37.7119 47.2917 39.3981C47.2917 40.2982 46.3907 41.7884 44.0306 43.3951C41.8735 44.8639 38.9988 46.0702 35.4246 46.0702C32.8791 46.0702 31.4521 45.4611 31.1801 45.4611C31.0761 45.4611 30.9955 45.4998 30.8816 45.6205C30.7341 45.7772 28.9113 47.6778 24.6705 47.6778C19.7952 47.6778 14.3331 45.2437 14.3331 42.9733C14.3331 41.8685 15.4793 41.56 15.4793 41.3235C15.4793 41.2274 15.3441 41.1918 15.2894 41.1739C8.48395 38.9365 0.804199 34.5145 0.804199 28.553C0.804199 26.9051 1.75851 26.0545 3.1341 26.0545C5.52547 26.0545 8.83523 27.4039 9.55562 27.4039C9.73126 27.4039 9.79752 27.2867 9.79752 27.167C9.79752 27.0054 9.69134 26.8253 9.48483 26.6112C5.12443 22.0942 3.30601 17.9408 3.30601 14.4656C3.30601 9.96907 5.96856 6.56491 9.50638 5.71648C16.0261 4.15327 19.9573 10.9353 23.4301 16.3845C23.5273 16.537 23.7043 16.8529 23.9209 16.8529C24.188 16.8529 24.2559 16.5391 24.4975 15.3436C24.7393 14.148 24.8114 13.7804 25.12 12.2487C26.1372 7.20409 28.5889 0.803619 35.6675 0.803619C39.8345 0.803619 44.9911 4.24118 44.9911 12.151ZM24.8188 23.4874C23.5022 23.4874 22.8072 22.5869 21.4627 20.5371C21.2493 20.2117 20.3176 18.8367 20.0802 18.4875C16.8274 13.7006 14.4685 11.5381 11.773 11.5381C10.1451 11.5381 7.70208 12.6481 7.70208 16.4344C7.70208 16.9289 7.75478 19.0501 9.44146 21.5641C11.5896 24.7657 14.6993 28.996 14.9845 29.3907C15.276 29.794 15.4289 30.2236 15.4265 30.6052C15.4252 30.8173 15.3715 31.7466 14.0733 31.7466C12.806 31.7466 7.26724 29.771 5.328 29.771C4.42905 29.771 3.84996 30.245 3.84996 31.0491C3.84996 33.1249 7.17383 37.3936 17.6197 40.2657C18.9313 40.6265 19.0472 41.1985 19.0472 41.3942C19.0472 42.1388 17.4211 42.4837 17.4211 43.7455C17.4211 45.5971 22.3324 46.4184 23.7407 46.4184C26.2474 46.4184 27.4779 45.5222 28.4122 44.7396C29.2106 44.0709 29.6646 43.8139 30.1973 43.8139C31.3185 43.8139 32.3668 44.6672 35.7711 44.6672C39.9127 44.6672 44.2603 42.032 44.2603 40.5966C44.2603 40.036 43.573 39.8936 42.0262 39.2723C41.2142 38.9459 40.7464 38.5451 40.7464 37.9277C40.7464 37.3399 41.1424 36.8758 42.3136 36.2562C43.5655 35.594 44.4605 35.1069 45.3838 34.5648C50.4199 31.6072 52.372 27.9986 52.3837 25.3887C52.3914 23.716 51.6023 22.5815 50.3181 22.5815C48.6258 22.5815 46.7696 23.7748 44.9595 24.8932C41.5723 26.9859 40.3387 27.786 39.1508 27.786C38.3093 27.786 37.9168 26.9099 37.9111 26.3918C37.908 26.0917 37.949 25.7471 38.061 25.3773C38.4986 23.9338 38.8096 22.9672 39.2884 21.4202C39.9925 19.1449 40.8458 16.5447 40.8458 13.9747C40.8458 9.95609 38.2867 7.21673 34.9272 7.21673C31.1669 7.21673 29.5573 11.5391 28.6033 14.9744C28.3425 15.9131 27.3522 19.5738 27.0504 20.6721C26.5227 22.5919 25.8268 23.4874 24.8188 23.4874Z" fill="#E76519"/>
</g>
<defs>
<clipPath id="clip0_78_191">
<rect width="177.818" height="46.8742" fill="white" transform="translate(0.171875 0.803619)"/>
</clipPath>
</defs>
</svg>
