<svg width="183" height="59" viewBox="0 0 183 59" fill="none" xmlns="http://www.w3.org/2000/svg">
<g clip-path="url(#clip0_79_200)">
<path d="M123.185 51.5509C122.464 50.9623 121.765 50.6986 120.927 50.6986V50.6957C118.88 50.6957 117.279 52.3872 117.279 54.4465C117.279 56.5052 118.921 58.1841 120.936 58.1841C121.588 58.1841 122.252 57.9953 122.761 57.6698C122.958 57.5497 123.163 57.3867 123.388 57.1659C123.635 56.9445 123.688 56.873 123.847 56.6517L123.891 56.5899L123.973 56.5767H124.593L124.466 56.8015C123.793 57.9856 122.375 58.7824 120.939 58.7824C118.586 58.7824 116.671 56.8244 116.671 54.4299C116.671 52.036 118.586 50.0905 120.939 50.0905C122.354 50.0905 123.708 50.8645 124.476 52.1041L124.618 52.3351H123.9L123.856 52.2734C123.631 51.9547 123.536 51.8404 123.185 51.5509Z" fill="#414141"/>
<path d="M101.299 50.8451H103.432V58.6423H104.042V50.8451H106.178V50.2433H101.322L101.299 50.8451Z" fill="#414141"/>
<path d="M109.269 58.6428H113.872V58.0405H109.867V54.7194H113.872V54.1176H109.867V50.8451H113.872V50.2467H109.269V58.6428Z" fill="#414141"/>
<path d="M127.706 58.6428H132.309V58.0405H128.304V54.7194H132.309V54.1176H128.304V50.8451H132.309V50.2467H127.706V58.6428Z" fill="#414141"/>
<path d="M135.4 50.2467H135.998V58.0405H139.342V58.6428H135.4V50.2467Z" fill="#414141"/>
<path fill-rule="evenodd" clip-rule="evenodd" d="M144.926 50.2433L141.424 58.6423H142.082L143.262 55.8256H147.182L148.362 58.6423H149.02L145.518 50.2433H144.926ZM143.515 55.2238L145.22 51.0795L146.916 55.2238H143.515Z" fill="#414141"/>
<path d="M158.678 55.5099H154.024L154.018 55.5133V54.9115H159.408L159.39 55.0774C159.133 57.159 157.27 58.7922 155.147 58.7922C152.756 58.7922 150.81 56.8535 150.81 54.4528C150.81 52.052 152.74 50.1003 155.113 50.1003C156.596 50.1003 158.02 50.8942 158.744 52.1172L158.877 52.3449H158.172L158.127 52.2865C157.352 51.2484 156.311 50.7021 155.125 50.7021C153.084 50.7021 151.42 52.4422 151.42 54.4625C151.42 56.4824 153.123 58.1904 155.138 58.1904C156.773 58.1904 158.292 57.0258 158.678 55.5099Z" fill="#414141"/>
<path d="M162.506 58.6428H167.106V58.0405H163.101V54.7194H167.106V54.1176H163.101V50.8451H167.106V50.2467H162.506V58.6428Z" fill="#414141"/>
<path d="M178.757 50.2467V58.6428H178.159V51.3724L174.661 58.6428H174.303L170.795 51.369V58.6428H170.197V50.2467H170.94L170.981 50.3279L174.477 57.6373L178.036 50.2467H178.757Z" fill="#414141"/>
<path d="M74.0833 12.2133H78.5216L78.5249 12.2166C78.4171 10.46 78.1834 9.73133 77.3417 8.67738C76.3164 7.40874 74.5039 6.62479 72.6119 6.62479C69.1667 6.62479 66.4619 8.94737 66.4619 11.9466C66.4619 13.3779 67.1455 14.7831 68.2209 15.6745C68.8251 16.1884 69.5338 16.5918 70.3216 16.9431C70.4611 17.0093 70.6934 17.1069 71.0156 17.2421C71.3582 17.3858 71.8019 17.572 72.3432 17.8084C73.6561 18.3484 74.2096 18.9436 74.2096 19.7536C74.2096 20.7263 73.4474 21.4809 72.4761 21.4809C71.3752 21.4809 70.6631 20.5376 70.6631 19.051H66.1709V19.6463C66.1709 23.1562 68.6954 25.3454 72.5296 25.3454C76.3642 25.3454 78.6513 23.2928 78.6513 19.835C78.6513 17.4831 77.5219 16.0257 74.5796 14.6465L72.4255 13.6479C71.4003 13.1599 70.929 12.6232 70.929 11.8653C70.929 11.1073 71.6378 10.486 72.479 10.486C73.4252 10.486 73.9248 10.9968 74.0833 12.2133Z" fill="#414141"/>
<path fill-rule="evenodd" clip-rule="evenodd" d="M103.245 11.026C99.1453 11.026 96.1523 14.1033 96.1523 18.3191V18.3223C96.1523 22.4275 99.2243 25.4528 103.271 25.4528C107.317 25.4528 110.338 22.369 110.338 18.2378C110.338 14.1065 107.345 11.026 103.245 11.026ZM103.271 21.6729C101.458 21.6729 100.091 20.1863 100.091 18.215V18.2117C100.091 16.3218 101.537 14.8092 103.271 14.8092C105.004 14.8092 106.396 16.2958 106.396 18.241C106.396 20.1863 105.083 21.6729 103.271 21.6729Z" fill="#414141"/>
<path fill-rule="evenodd" clip-rule="evenodd" d="M94.1185 11.0455V25.3422H90.414V23.5335C89.7842 24.8282 88.4429 25.4527 86.3423 25.4527C82.3752 25.4527 79.6699 22.5349 79.6699 18.2377C79.6699 13.9406 82.4542 11 86.4213 11C88.4174 11 89.6797 11.5952 90.414 12.9192V11.0455H94.1185ZM83.6086 18.2345C83.6086 20.1797 85.0545 21.6664 86.8925 21.6664C88.7306 21.6664 90.1764 20.209 90.1764 18.2085C90.1764 16.2079 88.7845 14.8026 86.8675 14.8026C84.9504 14.8026 83.6086 16.2892 83.6086 18.2345Z" fill="#414141"/>
<path d="M90.5972 6.83618L92.0937 8.88882C91.1479 9.56215 90.1766 9.91349 89.1769 9.91349C88.8098 9.91349 88.4147 9.85817 87.9937 9.77683L87.2315 9.6142C86.5734 9.4776 86.0482 9.39952 85.6811 9.39952C85.1308 9.39952 84.6847 9.53287 83.8179 9.93951L82.2959 7.77956C83.4257 7.1322 84.2385 6.83618 85.0546 6.83618C85.5263 6.83618 86.0009 6.91752 86.8676 7.07694C87.8389 7.29488 88.076 7.32091 88.6551 7.32091C89.3922 7.32091 89.7305 7.21354 90.5972 6.83618Z" fill="#414141"/>
<path d="M84.2513 39.0273H79.5755C78.6297 41.0278 77.1839 42.0525 75.3458 42.0525C72.6945 42.0525 70.6444 39.7039 70.6444 36.7047C70.6444 33.7055 72.6661 31.4382 75.3203 31.4382C77.2373 31.4382 78.8668 32.6515 79.5755 34.5967H84.2513C84.0677 33.4095 83.8842 32.9768 83.122 31.7342C81.4135 28.9529 78.6042 27.385 75.3458 27.385C70.1983 27.385 66.1777 31.4382 66.1777 36.7047C66.1777 41.9712 70.2489 46.1057 75.3993 46.1057C79.6796 46.1057 83.2544 43.2691 84.2513 39.0273Z" fill="#414141"/>
<path d="M86.2822 31.8091H90.0118V33.6795C90.7461 32.3556 91.6668 31.7896 93.1916 31.7896H93.2957V35.8427C91.0371 35.898 90.1954 36.5714 90.1954 38.3019V46.109H86.2822V31.8091Z" fill="#414141"/>
<path d="M95.3301 30.4655H99.2688V27.385H95.3301V30.4655Z" fill="#414141"/>
<path d="M95.3301 46.1057H99.2688V31.809H95.3301V46.1057Z" fill="#414141"/>
<path d="M111.597 36.0314H111.597C111.357 33.4133 109.52 31.7961 106.763 31.7961C103.795 31.7961 101.458 33.7674 101.458 36.2526C101.458 37.9832 102.641 39.5478 104.242 39.9804L106.554 40.6018C107.526 40.8425 108.076 41.3304 108.076 41.9517C108.076 42.5177 107.443 42.9764 106.709 42.9764C105.843 42.9764 105.318 42.5438 105.213 41.7338H101.3C101.587 44.5183 103.454 46.2196 106.554 46.2196C109.655 46.2196 112.018 44.245 112.018 41.6264C112.018 40.8425 111.809 40.1138 111.414 39.5185C110.68 38.4385 110.126 38.1425 107.421 37.3846C106.004 36.978 105.4 36.5194 105.4 35.898C105.4 35.3841 105.925 35.0327 106.633 35.0327C107.342 35.0327 107.684 35.3548 107.763 36.0314H111.597L111.597 36.0379V36.0314Z" fill="#414141"/>
<path d="M118.87 31.809V27.385H114.932V31.809H113.015V34.8603H114.932V46.1057H118.87V34.8603H120.762V31.809H118.87Z" fill="#414141"/>
<path fill-rule="evenodd" clip-rule="evenodd" d="M121.781 39.0826C121.781 34.8701 124.774 31.7895 128.874 31.7895C132.974 31.7895 135.967 34.8701 135.967 39.0013C135.967 43.1325 132.945 46.213 128.899 46.213C124.853 46.213 121.778 43.1878 121.778 39.0826H121.781ZM125.717 38.972C125.717 40.9433 127.083 42.4298 128.896 42.4298C130.708 42.4298 132.021 40.9465 132.021 38.998C132.021 37.0495 130.629 35.5694 128.896 35.5694C127.162 35.5694 125.717 37.082 125.717 38.972Z" fill="#414141"/>
<path d="M131.667 25.8756L131.668 25.8771L125.941 28.9269L126.934 31.1291L132.794 28.5659L131.668 25.8771L131.67 25.8756H131.667Z" fill="#414141"/>
<path d="M144.452 46.1056L149.181 32.3913H145.106L142.56 40.6765L140.038 32.3913H135.967L140.696 46.1056H144.452Z" fill="#414141"/>
<path fill-rule="evenodd" clip-rule="evenodd" d="M163.629 31.809V46.1089H159.924V44.297C159.295 45.595 157.954 46.2163 155.853 46.2163C151.885 46.2163 149.181 43.2984 149.181 39.0045C149.181 34.7106 151.965 31.7635 155.932 31.7635C157.928 31.7635 159.19 32.3588 159.924 33.6827V31.809H163.629ZM153.117 39.0013C153.117 40.9465 154.562 42.4331 156.4 42.4331C158.238 42.4331 159.684 40.9758 159.684 38.9752C159.684 36.9747 158.292 35.5727 156.375 35.5727C154.458 35.5727 153.117 37.056 153.117 39.0013Z" fill="#414141"/>
<path d="M160.108 27.603L161.604 29.6556C160.659 30.3322 159.687 30.6836 158.688 30.6836C158.32 30.6836 157.925 30.6282 157.504 30.5469L156.742 30.3843C156.087 30.2476 155.559 30.1663 155.192 30.1663C154.641 30.1663 154.195 30.2997 153.325 30.7063L151.804 28.5464C152.933 27.899 153.746 27.5997 154.562 27.5997C155.034 27.5997 155.505 27.6811 156.375 27.8437C157.346 28.0584 157.583 28.0877 158.162 28.0877C158.9 28.0877 159.238 27.9803 160.105 27.603H160.108Z" fill="#414141"/>
<path fill-rule="evenodd" clip-rule="evenodd" d="M172.753 31.7896C168.656 31.7896 165.661 34.8701 165.661 39.0826H165.657C165.657 43.1878 168.732 46.2131 172.779 46.2131C176.825 46.2131 179.846 43.1325 179.846 39.0013C179.846 34.8701 176.85 31.7896 172.753 31.7896ZM172.779 42.4332C170.966 42.4332 169.599 40.9465 169.599 38.9753C169.599 37.0853 171.045 35.5727 172.779 35.5727C174.512 35.5727 175.904 37.0528 175.904 39.0013C175.904 40.9498 174.591 42.4332 172.779 42.4332Z" fill="#414141"/>
<path d="M30.9946 0.414978C25.3223 0.414978 20.1719 2.75709 16.4072 6.55003C17.5145 6.29302 18.6376 6.12062 19.7733 6.03933C20.3016 6.00026 20.8299 5.98401 21.3361 5.98401C21.6304 5.98401 21.9214 5.99053 22.2124 6.00352C24.8035 4.48115 27.7994 3.60286 30.9915 3.60286C34.1835 3.60286 37.1826 4.4779 39.7768 6.00352C40.0678 5.99053 40.3557 5.98401 40.6468 5.98401C41.1562 5.98401 41.6813 6.00352 42.2128 6.03933C43.3485 6.12062 44.4716 6.29302 45.5789 6.55003C41.8142 2.75709 36.667 0.414978 30.9946 0.414978Z" fill="#85CEE4"/>
<path d="M32.45 43.2594C32.8454 42.9342 33.4181 42.3812 33.785 42.0233C33.9851 42.2291 34.4707 42.7275 34.942 43.2113L34.9426 43.212L34.9441 43.2135L34.9631 43.2329C35.4006 43.682 35.8221 44.1147 35.9869 44.2841C35.389 44.8924 34.7531 45.4649 34.0856 45.9952C33.1175 46.7661 32.0861 47.4492 30.9947 48.038C28.1063 49.5963 24.8225 50.4778 21.3394 50.4778C9.8365 50.4778 0.478516 40.8555 0.478516 29.0279C0.478516 19.6692 6.34068 11.6897 14.4838 8.76856C16.1922 8.15375 18.0049 7.7634 19.8809 7.63006C20.365 7.59751 20.849 7.578 21.3394 7.578C24.1392 7.578 26.8093 8.15054 29.2484 9.18493C28.0905 9.92009 27.037 10.7041 26.1006 11.4392C24.5852 11.0033 23.0572 10.7691 21.3394 10.7691C19.6215 10.7691 17.9606 11.0196 16.3883 11.4913C14.7148 11.9922 13.1425 12.7404 11.7093 13.6935C6.81839 16.9497 3.57886 22.6066 3.57886 29.0279C3.57886 39.0989 11.548 47.2898 21.3394 47.2898C23.6583 47.2898 25.8728 46.8279 27.9039 45.9952C28.9921 45.5495 30.0267 44.9933 30.9947 44.3459C31.4977 44.0076 31.9849 43.6466 32.45 43.2594Z" fill="#85CEE4"/>
<path d="M51.6847 19.1226C50.5743 17.8149 49.2491 16.7057 47.7651 15.8534C45.655 14.6433 43.2317 13.9504 40.6501 13.9504V17.1383C43.7821 17.1383 46.6231 18.4265 48.7045 20.5148C50.0018 21.8127 51.0048 23.423 51.5962 25.2251C51.9884 26.4189 52.2037 27.6941 52.2037 29.0245C52.2037 35.5759 47.0185 40.9075 40.647 40.9075V44.0954C48.73 44.0954 55.304 37.3325 55.304 29.0245C55.304 25.2349 53.9343 21.7737 51.6818 19.1193L51.6847 19.1226Z" fill="#85CEE4"/>
<path d="M13.2817 20.5182C15.3664 18.433 18.2074 17.1416 21.3362 17.1416V13.9538C18.7547 13.9538 16.3282 14.6466 14.2212 15.8567C12.7375 16.709 11.4119 17.8182 10.3015 19.1259C8.04902 21.777 6.6792 25.2414 6.6792 29.0311C6.6792 37.3424 13.2563 44.102 21.3362 44.102V40.9141C14.9647 40.9141 9.77954 35.5825 9.77954 29.0311C9.77954 27.7039 9.99467 26.4255 10.3869 25.2317C10.9785 23.4295 11.9814 21.8194 13.2785 20.5214L13.2817 20.5182Z" fill="#85CEE4"/>
<path d="M33.7251 36.2102C35.5727 38.1099 38.0276 39.1574 40.6439 39.1574C43.2602 39.1574 45.7152 38.1099 47.5627 36.2102L45.5033 34.0926C44.2062 35.4295 42.4788 36.1647 40.6439 36.1647C38.809 36.1647 37.0817 35.4295 35.7846 34.0926C34.4876 32.7589 33.7694 30.9828 33.7694 29.0961C33.7694 27.2093 34.4844 25.4332 35.7846 24.0996C37.0817 22.7658 38.809 22.0274 40.6439 22.0274C42.4788 22.0274 44.2062 22.7626 45.5033 24.0996L47.5627 21.9819C45.7152 20.0822 43.2602 19.0347 40.6439 19.0347C38.0276 19.0347 35.5727 20.0822 33.7251 21.9819C31.8776 23.8816 30.8589 26.4059 30.8589 29.0961C30.8589 31.7862 31.8776 34.3105 33.7251 36.2102Z" fill="#85CEE4"/>
<path d="M23.2535 22.844C22.7441 22.3203 22.064 22.0308 21.3395 22.0308C20.6151 22.0308 19.9349 22.3203 19.4224 22.8472C18.9099 23.3742 18.6283 24.0769 18.6283 24.8185C18.6283 25.5602 18.9099 26.2596 19.4224 26.7866C19.9349 27.3135 20.6151 27.603 21.3395 27.603C22.8422 27.603 24.2532 28.2016 25.313 29.2946C26.3728 30.3876 26.9581 31.8384 26.9581 33.3803C26.9581 34.9222 26.3728 36.373 25.313 37.466C24.25 38.559 22.8422 39.1607 21.3395 39.1607C19.8368 39.1607 18.429 38.5622 17.366 37.4692C16.3062 36.3762 15.7209 34.9254 15.7209 33.3835H18.6315C18.6315 34.1252 18.913 34.8278 19.4255 35.3548C19.9349 35.8785 20.6182 36.168 21.3395 36.168C22.0608 36.168 22.741 35.8785 23.2535 35.3515C23.766 34.8246 24.0476 34.122 24.0476 33.3803C24.0476 32.6386 23.766 31.9392 23.2535 31.4122C22.7441 30.8853 22.064 30.5957 21.3395 30.5957C19.8368 30.5957 18.4258 29.994 17.3629 28.901C16.303 27.8112 15.7178 26.3604 15.7178 24.8185C15.7178 23.2767 16.303 21.8258 17.3629 20.7329C18.4258 19.6399 19.8368 19.0381 21.3395 19.0381C22.8422 19.0381 24.25 19.6366 25.313 20.7296C26.3728 21.8226 26.9581 23.2734 26.9581 24.8153H24.0476C24.0476 24.0704 23.766 23.371 23.2535 22.844Z" fill="#85CEE4"/>
<path d="M42.1055 7.63006C43.9847 7.7634 45.7943 8.15375 47.5027 8.76856L47.4963 8.7653C55.6395 11.6897 61.5014 19.6659 61.5014 29.0246C61.5014 40.8523 52.1436 50.4744 40.6408 50.4744C40.258 50.4744 39.8815 50.4612 39.505 50.4418C39.4507 50.4817 39.3945 50.5216 39.3408 50.5605C39.2131 50.6519 39.1 50.7327 39.0621 50.7672C39.0273 50.7901 35.6644 53.22 33.7504 58.7858H28.9544C28.2932 55.074 27.4169 53.5747 25.1201 51.782C27.4422 51.3432 29.6662 50.559 31.7447 49.4367C32.9659 48.7797 34.1301 47.9957 35.2278 47.137C35.4746 46.945 35.6929 46.7694 35.889 46.61C36.0156 46.649 36.1484 46.6881 36.2971 46.7304C37.6892 47.0914 39.1444 47.2866 40.644 47.2866C50.4385 47.2866 58.4044 39.0924 58.4044 29.0246C58.4044 22.6033 55.1649 16.9465 50.2772 13.6903C48.8474 12.7371 47.2717 11.989 45.5982 11.488C44.0259 11.0196 42.3649 10.7659 40.6471 10.7659C38.3282 10.7659 36.1137 11.2245 34.0826 12.0573C32.9943 12.5029 31.9598 13.0592 30.9917 13.7065C29.9636 14.2953 28.5052 15.6485 28.0053 16.169C27.613 15.7907 27.1516 15.3116 26.7024 14.8452C26.3947 14.5256 26.0926 14.2119 25.8224 13.9407C27.3726 12.2329 29.9003 10.6065 30.9917 10.0177C33.8801 8.45955 37.164 7.578 40.6471 7.578C41.1375 7.578 41.6246 7.59425 42.1055 7.63006Z" fill="#85CEE4"/>
<path d="M182.437 29.1483C182.437 30.6025 181.298 31.8322 179.836 31.8322C178.375 31.8322 177.258 30.622 177.258 29.1646C177.258 27.7072 178.39 26.4808 179.852 26.4808C181.314 26.4808 182.44 27.6844 182.44 29.1483H182.437ZM181.833 29.1483C181.833 28.0325 180.969 27.1119 179.852 27.1119C178.735 27.1119 177.871 28.0488 177.871 29.1646C177.871 30.2804 178.719 31.2011 179.84 31.2011C180.959 31.2011 181.836 30.2641 181.836 29.1483H181.833ZM180.494 29.5029L181.013 30.3292H180.317L179.95 29.6201H179.469V30.3292H178.865V27.8113H179.922C180.573 27.8113 180.941 28.1269 180.941 28.6832C180.941 29.0702 180.779 29.3533 180.498 29.5029H180.494ZM179.922 29.1321C180.197 29.1321 180.358 28.9759 180.358 28.7059C180.358 28.4359 180.197 28.2895 179.922 28.2895H179.469V29.1321H179.922Z" fill="#414141"/>
</g>
<defs>
<clipPath id="clip0_79_200">
<rect width="182.15" height="58.3772" fill="white" transform="translate(0.478516 0.414978)"/>
</clipPath>
</defs>
</svg>
