<?xml version="1.0" encoding="UTF-8" standalone="no"?>
<!-- Created with Inkscape (http://www.inkscape.org/) -->

<svg
   width="800mm"
   height="800mm"
   viewBox="0 0 800 800"
   version="1.1"
   id="svg1"
   xml:space="preserve"
   inkscape:export-filename="bitmap.svg"
   inkscape:export-xdpi="96"
   inkscape:export-ydpi="96"
   inkscape:version="1.4.2 (f4327f4, 2025-05-13)"
   sodipodi:docname="inomeado.svg"
   xmlns:inkscape="http://www.inkscape.org/namespaces/inkscape"
   xmlns:sodipodi="http://sodipodi.sourceforge.net/DTD/sodipodi-0.dtd"
   xmlns="http://www.w3.org/2000/svg"
   xmlns:svg="http://www.w3.org/2000/svg"><sodipodi:namedview
     id="namedview1"
     pagecolor="#ffffff"
     bordercolor="#000000"
     borderopacity="0.25"
     inkscape:showpageshadow="2"
     inkscape:pageopacity="0.0"
     inkscape:pagecheckerboard="0"
     inkscape:deskcolor="#d1d1d1"
     inkscape:document-units="mm"
     inkscape:zoom="0.12154297"
     inkscape:cx="3315.6998"
     inkscape:cy="2044.5444"
     inkscape:window-width="1920"
     inkscape:window-height="974"
     inkscape:window-x="-11"
     inkscape:window-y="-11"
     inkscape:window-maximized="1"
     inkscape:current-layer="layer1" /><defs
     id="defs1"><inkscape:path-effect
       effect="mirror_symmetry"
       start_point="407,125.95842"
       end_point="407,545.09996"
       center_point="407,335.52919"
       id="path-effect2"
       is_visible="false"
       lpeversion="1.2"
       lpesatellites=""
       mode="free"
       discard_orig_path="false"
       fuse_paths="false"
       oposite_fuse="false"
       split_items="false"
       split_open="false"
       link_styles="false" /><inkscape:path-effect
       effect="powerstroke"
       message=""
       id="path-effect1"
       is_visible="true"
       lpeversion="1.3"
       scale_width="1"
       interpolator_type="CentripetalCatmullRom"
       interpolator_beta="0.66359447"
       start_linecap_type="round"
       end_linecap_type="round"
       offset_points="0,21.525633 | 5.0015749,16.526845 | 9.8487298,6.9302063 | 1.8975707,6.6061085"
       linejoin_type="round"
       miter_limit="4"
       not_jump="false"
       sort_points="true" /><inkscape:path-effect
       effect="powerstroke"
       message=""
       id="path-effect1-5"
       is_visible="true"
       lpeversion="1.3"
       scale_width="0.69124424"
       interpolator_type="CentripetalCatmullRom"
       interpolator_beta="0.66359447"
       start_linecap_type="round"
       end_linecap_type="round"
       offset_points="0,21.525633 | 5.0015749,16.526845 | 9.8487298,6.9302063 | 1.8975707,6.6061085"
       linejoin_type="round"
       miter_limit="4"
       not_jump="false"
       sort_points="true" /><inkscape:path-effect
       effect="powerstroke"
       message=""
       id="path-effect1-2"
       is_visible="true"
       lpeversion="1.3"
       scale_width="1"
       interpolator_type="CentripetalCatmullRom"
       interpolator_beta="0.66359447"
       start_linecap_type="round"
       end_linecap_type="round"
       offset_points="0,21.525633 | 5.0015749,16.526845 | 9.8487298,6.9302063 | 1.8975707,6.6061085"
       linejoin_type="round"
       miter_limit="4"
       not_jump="false"
       sort_points="true" /><inkscape:path-effect
       effect="mirror_symmetry"
       start_point="407,125.95842"
       end_point="407,545.09996"
       center_point="407,335.52919"
       id="path-effect2-7"
       is_visible="true"
       lpeversion="1.2"
       lpesatellites=""
       mode="free"
       discard_orig_path="true"
       fuse_paths="false"
       oposite_fuse="false"
       split_items="false"
       split_open="false"
       link_styles="false" /></defs><g
     inkscape:label="Camada 1"
     inkscape:groupmode="layer"
     id="layer1"><path
       style="display:inline;opacity:1;fill:#02afc5;fill-opacity:1;fill-rule:nonzero;stroke:none;stroke-width:30;stroke-linecap:round;stroke-linejoin:round;stroke-dasharray:none;stroke-opacity:1"
       d="m 240.12768,162.36975 v 0 c 0,8e-5 0,0.0202 0,0 a 3.5958809,1.3593517 15.090453 0 0 4.19402,-0.41253 c -0.60493,-0.18838 -0.20547,-1.70905 7.3529,-2.72848 4.94792,-0.66735 13.63276,-0.99961 24.57613,1.57194 9.49721,2.23172 21.6268,6.87768 34.56007,16.55936 11.99911,8.98238 25.22334,22.702 37.62488,43.80904 4.4588,6.65896 8.97499,15.48048 13.27493,26.06668 4.22322,10.39733 8.12362,22.21333 11.51124,34.86832 5.51161,20.5895 9.47695,42.67676 11.43526,63.78723 0.51387,5.53955 0.89694,11.08078 1.13696,16.5792 1.11254,25.34469 -0.93881,49.65747 -4.28362,69.95581 -1.60249,9.72484 -3.47667,18.36597 -5.35857,25.48917 -0.92377,3.49654 -1.84479,6.60927 -2.72546,9.27269 -0.87108,2.63439 -1.69979,4.81936 -2.43158,6.45042 -4.51767,11.50827 -12.88701,22.23058 -24.13023,30.58288 -10.82878,8.04443 -24.19821,13.78704 -38.93212,15.79325 -5.1317,0.58835 -10.85597,0.78136 -16.79858,0.15353 -5.83867,-0.61685 -11.81338,-2.01735 -17.65334,-4.56424 -5.71655,-2.49306 -11.50049,-6.16773 -17.05793,-11.58306 -5.49243,-5.35197 -11.02852,-12.66278 -16.06857,-22.75618 -0.0207,-0.0418 -0.0414,-0.0837 -0.0621,-0.12564 -3.12357,-6.33981 -5.47741,-14.76425 -6.18374,-24.77895 -0.64843,-9.19372 0.13994,-19.29609 2.73627,-29.09421 2.4397,-9.20702 6.37887,-17.75317 11.75856,-24.58678 5.06827,-6.43802 11.38635,-11.33532 19.10643,-13.97638 0.89033,-0.30451 2.03136,-0.72774 3.20473,-1.29102 0.59774,-0.28695 1.3758,-0.69183 2.21889,-1.23382 0.79779,-0.51288 2.00878,-1.3735 3.23669,-2.66154 0.63493,-0.66601 1.35944,-1.53476 2.04414,-2.62376 0.6893,-1.09633 1.36911,-2.46581 1.84721,-4.10126 0.48499,-1.65899 0.7273,-3.47599 0.62686,-5.37959 -0.10015,-1.89807 -0.52836,-3.64441 -1.14969,-5.18331 -0.61105,-1.51341 -1.37227,-2.74419 -2.11294,-3.72109 -0.73104,-0.9642 -1.47487,-1.72207 -2.11667,-2.2981 -1.24058,-1.11347 -2.42301,-1.83534 -3.20591,-2.26438 -1.52359,-0.83494 -2.93548,-1.31445 -3.74358,-1.56829 -0.91511,-0.28745 -1.81992,-0.51668 -2.59848,-0.69907 -1.51256,-0.35436 -3.33275,-0.71034 -5.04093,-1.04398 -3.57191,-0.69767 -7.83523,-1.52265 -12.72342,-2.73591 -4.81929,-1.19616 -10.16933,-2.7533 -15.70265,-4.85499 -10.98081,-4.17076 -22.45077,-10.3968 -31.89241,-19.97562 -4.67442,-4.74234 -8.91652,-10.3693 -12.39272,-17.10858 -3.46779,-6.72297 -6.24777,-14.69697 -7.8782,-24.21293 -2.11469,-11.94033 -1.92423,-21.85984 -0.26995,-30.09124 1.65174,-8.21881 4.808,-14.94021 8.91207,-20.41543 4.18783,-5.58694 9.48367,-10.04712 15.53871,-13.4604 6.1949,-3.49212 13.1099,-5.83559 20.21751,-7.07853 11.93114,-2.17787 24.23072,-1.62355 36.19276,1.65641 13.41795,3.67917 25.95987,10.64942 37.20762,20.3563 7.71975,6.72947 14.3315,14.47692 19.85323,22.15541 6.42523,8.93491 11.53137,17.99156 15.41968,25.85049 5.12334,10.35512 8.55625,19.47807 10.64746,25.70331 1.28054,3.81199 2.19852,6.95353 2.81815,9.25326 1.84299,6.84021 2.45811,11.27857 2.63316,12.36873 a 6.9302063,6.9302063 90 0 0 13.68512,-2.19736 c -0.17258,-1.07482 -1.10311,-6.38663 -2.89748,-13.63453 -0.61621,-2.48899 -1.50288,-5.9268 -2.7194,-10.04609 -1.99062,-6.74054 -5.25272,-16.62913 -10.28247,-27.95045 -3.81056,-8.57706 -8.93174,-18.63938 -15.58392,-28.76177 -5.7027,-8.67762 -12.79787,-17.80506 -21.43593,-26.0227 -12.36584,-11.87193 -26.83773,-21.24108 -43.17689,-26.84588 -14.58282,-5.00233 -30.11604,-6.8011 -45.70218,-5.00265 -9.50309,1.15901 -19.20957,3.83857 -28.32699,8.38707 -8.94972,4.46483 -17.39032,10.77615 -24.32433,19.16146 -6.88639,8.32774 -12.15162,18.52617 -15.06344,30.58885 -2.88994,11.97203 -3.39615,25.49843 -1.15191,40.5216 1.8875,12.24659 5.3496,23.05921 10.02345,32.58068 4.68554,9.54526 10.51452,17.64144 16.98398,24.49593 12.99496,13.76832 28.36598,22.31612 41.8703,27.8148 6.85483,2.79115 13.34866,4.845 18.97534,6.40541 5.65379,1.56792 10.59845,2.68039 14.01374,3.48428 1.77072,0.41679 3.05269,0.73277 3.83293,0.96892 0.33036,0.1 0.58873,0.197 0.44934,0.17184 -0.0128,-0.002 -0.63722,-0.1446 -1.72292,-0.73485 -0.53646,-0.29166 -1.51658,-0.87406 -2.60456,-1.84937 -0.56505,-0.50654 -1.24401,-1.19463 -1.92233,-2.08884 -0.68789,-0.90681 -1.40845,-2.0672 -1.99111,-3.50983 -0.59293,-1.46804 -1.00502,-3.14313 -1.10154,-4.96943 -0.0968,-1.83177 0.13666,-3.57644 0.60014,-5.1625 0.45658,-1.56243 1.10219,-2.85831 1.74445,-3.8803 0.6376,-1.01458 1.30219,-1.80828 1.86414,-2.39835 1.08114,-1.13525 2.09498,-1.84203 2.64019,-2.19478 0.58779,-0.38028 1.06561,-0.62551 1.29929,-0.74178 0.48367,-0.24067 0.60973,-0.27479 0.35811,-0.21119 -14.54418,4.61671 -25.98827,13.42139 -34.53134,23.89206 -8.88915,10.89484 -14.75248,23.69262 -18.23921,36.32722 -3.7273,13.50637 -4.89232,27.31704 -4.02814,40.00485 0.93797,13.77105 4.2733,26.56849 9.70678,37.30329 0.0364,0.072 0.073,0.14392 0.10965,0.21578 6.70862,13.16798 14.6595,23.54388 23.4172,31.52662 8.88894,8.10234 18.39778,13.54593 27.86125,16.97751 9.56565,3.46862 18.94561,4.83456 27.50046,4.95318 8.6743,0.12028 16.63773,-1.03774 23.39112,-2.69312 19.28507,-4.42597 35.77599,-13.82063 48.34684,-25.53985 13.07252,-12.1869 22.09003,-27.0167 26.26585,-42.36582 0.48946,-2.12868 1.05307,-4.76858 1.63718,-7.69739 0.59654,-2.9911 1.23706,-6.39566 1.89059,-10.14306 1.3326,-7.64114 2.71932,-16.7058 3.9386,-26.82447 2.54437,-21.1153 4.27298,-46.08734 3.5334,-72.34913 -0.1616,-5.69279 -0.43526,-11.42484 -0.80528,-17.15179 -1.41033,-21.82843 -4.28519,-44.68027 -8.42249,-66.44115 -2.53859,-13.3522 -5.51751,-26.10011 -8.83569,-37.65763 -3.35487,-11.68537 -7.08856,-22.2681 -11.13311,-31.09975 -12.47107,-24.28105 -26.52408,-41.6441 -40.44066,-54.19378 -15.02442,-13.54872 -29.96068,-21.54383 -42.57246,-26.40766 -14.31006,-5.51879 -26.70976,-7.4026 -34.36181,-8.19521 -10.89858,-1.12888 -15.13685,-0.82281 -16.12897,-1.13176 l 4.19402,-0.41253 c 0,-0.0202 0,-8e-5 0,0 a 21.525633,21.525633 90 0 0 0,43.05126 z"
       id="path1"
       sodipodi:nodetypes="csssssssssc"
       inkscape:path-effect="#path-effect1;#path-effect2"
       inkscape:original-d="m 240.12768,140.84412 c 0,0 70.2901,-13.96281 118.80895,74.57014 17.2529,31.48159 31.32788,92.49961 33.27747,146.82587 1.89168,52.71235 -8.01454,98.9972 -12.8995,114.09107 -8.8688,27.40339 -35.38013,50.81458 -68.83752,57.1409 -23.98315,4.53488 -61.51678,1.48978 -84.87422,-44.75706 -18.22675,-36.08828 -6.56006,-100.89115 37.16882,-115.15259 18.86517,-6.15256 -82.28445,1.40976 -96.34601,-85.56894 -8.71123,-53.88389 22.97704,-79.98819 56.63251,-84.85229 26.40717,-3.81653 55.73952,3.71841 81.13972,26.93062 31.00172,28.33121 48.00681,75.09816 52.14544,100.87337"
       transform="matrix(1.3720127,0,0,1.3720127,-161.26368,-47.836691)" /><path
       style="display:inline;fill:#e72d84;fill-opacity:1;fill-rule:nonzero;stroke:none;stroke-width:30;stroke-linecap:round;stroke-linejoin:round;stroke-dasharray:none;stroke-opacity:1"
       d="m 569.6783,161.95722 c 0,0 -0.0405,0.0126 0,0 0.60493,-0.18838 0.20547,-1.70905 -7.3529,-2.72848 -4.94792,-0.66735 -13.63276,-0.99961 -24.57612,1.57193 -9.49722,2.23173 -21.62681,6.8777 -34.56008,16.55937 -11.99911,8.98238 -25.22334,22.702 -37.62488,43.80904 -4.4588,6.65896 -8.97499,15.48049 -13.27493,26.06668 -4.22322,10.39733 -8.12362,22.21333 -11.51124,34.86832 -5.51161,20.5895 -9.47695,42.67676 -11.43526,63.78723 -0.51387,5.53955 -0.89694,11.08078 -1.13696,16.5792 -1.11254,25.34469 0.93881,49.65747 4.28362,69.95581 1.60249,9.72484 3.47667,18.36597 5.35857,25.48917 0.92377,3.49654 1.84479,6.60927 2.72546,9.27269 0.87108,2.63439 1.69979,4.81936 2.43158,6.45042 4.51767,11.50827 12.88701,22.23058 24.13023,30.58288 10.82878,8.04443 24.19821,13.78704 38.93212,15.79325 5.1317,0.58835 10.85597,0.78136 16.79858,0.15353 5.83867,-0.61685 11.81338,-2.01735 17.65334,-4.56424 5.71655,-2.49306 11.50049,-6.16773 17.05793,-11.58306 5.49243,-5.35197 11.02852,-12.66278 16.06857,-22.75618 0.0207,-0.0418 0.0414,-0.0837 0.0621,-0.12564 3.12357,-6.33981 5.47741,-14.76425 6.18374,-24.77895 0.64843,-9.19372 -0.13994,-19.29609 -2.73627,-29.09421 -2.4397,-9.20702 -6.37887,-17.75317 -11.75856,-24.58678 -5.06827,-6.43802 -11.38635,-11.33532 -19.10643,-13.97638 -0.89033,-0.30451 -2.03136,-0.72774 -3.20473,-1.29102 -0.59774,-0.28695 -1.3758,-0.69183 -2.21889,-1.23382 -0.79779,-0.51288 -2.00878,-1.3735 -3.23669,-2.66154 -0.63493,-0.66601 -1.35944,-1.53476 -2.04414,-2.62376 -0.6893,-1.09633 -1.36911,-2.46581 -1.84721,-4.10126 -0.48499,-1.65899 -0.7273,-3.47599 -0.62686,-5.37959 0.10015,-1.89807 0.52836,-3.64441 1.14969,-5.18331 0.61105,-1.51341 1.37227,-2.74419 2.11294,-3.72109 0.73104,-0.9642 1.47487,-1.72207 2.11667,-2.2981 1.24058,-1.11347 2.42301,-1.83534 3.20591,-2.26438 1.52359,-0.83494 2.93548,-1.31445 3.74358,-1.56829 0.91511,-0.28745 1.81992,-0.51668 2.59848,-0.69907 1.51256,-0.35436 3.33275,-0.71034 5.04093,-1.04398 3.57191,-0.69767 7.83523,-1.52265 12.72342,-2.73591 4.81929,-1.19616 10.16933,-2.7533 15.70265,-4.85499 10.98081,-4.17076 22.45077,-10.3968 31.89241,-19.97562 4.67442,-4.74234 8.91652,-10.3693 12.39272,-17.10858 3.46779,-6.72297 6.24777,-14.69697 7.8782,-24.21293 2.11469,-11.94033 1.92423,-21.85984 0.26995,-30.09124 -1.65174,-8.21881 -4.808,-14.94021 -8.91207,-20.41543 -4.18783,-5.58694 -9.48367,-10.04712 -15.53871,-13.4604 -6.1949,-3.49212 -13.1099,-5.83559 -20.21751,-7.07853 -11.93114,-2.17787 -24.23072,-1.62355 -36.19276,1.65641 -13.41795,3.67917 -25.95987,10.64942 -37.20762,20.3563 -7.71975,6.72947 -14.3315,14.47692 -19.85323,22.15541 -6.42523,8.93491 -11.53137,17.99156 -15.41968,25.85049 -5.12334,10.35512 -8.55625,19.47807 -10.64746,25.70331 -1.28054,3.81199 -2.19852,6.95353 -2.81815,9.25326 -1.84299,6.84021 -2.45811,11.27857 -2.63316,12.36873 -0.60679,3.77905 -4.1622,6.35067 -7.94124,5.74388 -3.77905,-0.60679 -6.35067,-4.1622 -5.74388,-7.94124 0.17258,-1.07482 1.10311,-6.38663 2.89748,-13.63453 0.61621,-2.48899 1.50288,-5.9268 2.7194,-10.04609 1.99062,-6.74054 5.25272,-16.62913 10.28247,-27.95045 3.81056,-8.57706 8.93174,-18.63938 15.58392,-28.76177 5.7027,-8.67762 12.79787,-17.80506 21.43593,-26.0227 12.36584,-11.87193 26.83773,-21.24108 43.17689,-26.84588 14.58282,-5.00233 30.11604,-6.8011 45.70218,-5.00265 9.50309,1.15901 19.20957,3.83857 28.32699,8.38707 8.94972,4.46483 17.39032,10.77615 24.32433,19.16146 6.88639,8.32774 12.15162,18.52617 15.06344,30.58885 2.88994,11.97203 3.39615,25.49843 1.15191,40.5216 -1.8875,12.24659 -5.3496,23.05921 -10.02345,32.58068 -4.68554,9.54526 -10.51452,17.64144 -16.98398,24.49593 -12.99496,13.76832 -28.36598,22.31612 -41.8703,27.8148 -6.85483,2.79115 -13.34866,4.845 -18.97534,6.40541 -5.65379,1.56792 -10.59845,2.68039 -14.01374,3.48428 -1.77072,0.41679 -3.05269,0.73277 -3.83293,0.96892 -0.33036,0.1 -0.58873,0.197 -0.44934,0.17184 0.0128,-0.002 0.63722,-0.1446 1.72292,-0.73485 0.53646,-0.29166 1.51658,-0.87406 2.60456,-1.84937 0.56505,-0.50654 1.24401,-1.19463 1.92233,-2.08884 0.68789,-0.90681 1.40845,-2.0672 1.99111,-3.50983 0.59293,-1.46804 1.00502,-3.14313 1.10154,-4.96943 0.0968,-1.83177 -0.13666,-3.57644 -0.60014,-5.1625 -0.45658,-1.56243 -1.10219,-2.85831 -1.74445,-3.8803 -0.6376,-1.01458 -1.30219,-1.80828 -1.86414,-2.39835 -1.08114,-1.13525 -2.09498,-1.84203 -2.64019,-2.19478 -0.58779,-0.38028 -1.06561,-0.62551 -1.29929,-0.74178 -0.48367,-0.24067 -0.60973,-0.27479 -0.35811,-0.21119 14.54418,4.61671 25.98827,13.42139 34.53134,23.89206 8.88915,10.89484 14.75248,23.69262 18.23921,36.32722 3.7273,13.50637 4.89232,27.31704 4.02814,40.00485 -0.93797,13.77105 -4.2733,26.56849 -9.70678,37.30329 -0.0364,0.072 -0.073,0.14392 -0.10965,0.21578 -6.70862,13.16798 -14.6595,23.54388 -23.4172,31.52662 -8.88894,8.10234 -18.39778,13.54593 -27.86125,16.97751 -9.56565,3.46862 -18.94561,4.83456 -27.50046,4.95318 -8.6743,0.12028 -16.63773,-1.03774 -23.39112,-2.69312 -19.28507,-4.42597 -35.77599,-13.82063 -48.34684,-25.53985 -13.07252,-12.1869 -22.09003,-27.0167 -26.26585,-42.36582 -0.48946,-2.12868 -1.05307,-4.76858 -1.63718,-7.69739 -0.59654,-2.9911 -1.23706,-6.39566 -1.89059,-10.14306 -1.3326,-7.64114 -2.71932,-16.7058 -3.9386,-26.82447 -2.54437,-21.1153 -4.27298,-46.08734 -3.5334,-72.34913 0.1616,-5.69279 0.43526,-11.42484 0.80528,-17.15179 1.41033,-21.82843 4.28519,-44.68027 8.42249,-66.44115 2.53859,-13.3522 5.51751,-26.10011 8.83569,-37.65763 3.35487,-11.68537 7.08856,-22.2681 11.13311,-31.09975 12.47107,-24.28105 26.52408,-41.6441 40.44065,-54.19378 15.02443,-13.54872 29.96069,-21.54383 42.57247,-26.40766 14.31007,-5.51879 26.70976,-7.4026 34.36181,-8.19521 10.89859,-1.12888 15.13686,-0.82281 16.12897,-1.13176 0.0405,-0.0126 0,0 0,0 11.66045,2.31629 19.23537,13.64668 16.91907,25.30712 -2.31629,11.66044 -13.64666,19.23538 -25.30711,16.91908 z"
       id="path1-4"
       sodipodi:nodetypes="csssssssssc"
       inkscape:path-effect="#path-effect1-2;#path-effect2-7"
       inkscape:original-d="m 240.12768,140.84412 c 0,0 70.2901,-13.96281 118.80895,74.57014 17.2529,31.48159 31.32788,92.49961 33.27747,146.82587 1.89168,52.71235 -8.01454,98.9972 -12.8995,114.09107 -8.8688,27.40339 -35.38013,50.81458 -68.83752,57.1409 -23.98315,4.53488 -61.51678,1.48978 -84.87422,-44.75706 -18.22675,-36.08828 -6.56006,-100.89115 37.16882,-115.15259 18.86517,-6.15256 -82.28445,1.40976 -96.34601,-85.56894 -8.71123,-53.88389 22.97704,-79.98819 56.63251,-84.85229 26.40717,-3.81653 55.73952,3.71841 81.13972,26.93062 31.00172,28.33121 48.00681,75.09816 52.14544,100.87337"
       transform="matrix(1.3720127,0,0,1.3720127,-159.63563,-48.331247)" /></g></svg>
