<svg width="46" height="46" viewBox="0 0 46 46" fill="none" xmlns="http://www.w3.org/2000/svg">
<g clip-path="url(#clip0_214_124)">
<path fill-rule="evenodd" clip-rule="evenodd" d="M40.0875 0.682617C43.1023 0.682617 45.5498 3.13026 45.5498 6.14497V39.9293C45.5498 42.944 43.1022 45.3916 40.0875 45.3916H30.7904V28.5458H36.6061L37.7126 21.3312H30.7904V16.6492C30.7904 14.6755 31.7574 12.7515 34.8579 12.7515H38.0052V6.60927C38.0052 6.60927 35.1489 6.12183 32.4181 6.12183C26.717 6.12183 22.9908 9.57709 22.9908 15.8324V21.3312H16.6536V28.5458H22.9908V45.3916H6.30318C3.28846 45.3916 0.84082 42.944 0.84082 39.9293V6.14497C0.84082 3.13026 3.28838 0.682617 6.30318 0.682617L40.0875 0.682617Z" fill="#4C364B"/>
</g>
<defs>
<clipPath id="clip0_214_124">
<rect width="44.709" height="44.709" fill="white" transform="translate(0.84082 0.682617)"/>
</clipPath>
</defs>
</svg>
