<svg width="27" height="24" viewBox="0 0 27 24" fill="none" xmlns="http://www.w3.org/2000/svg">
<path d="M0 2C0 0.89375 0.86183 0 1.92857 0H25.0714C26.1382 0 27 0.89375 27 2C27 3.10625 26.1382 4 25.0714 4H1.92857C0.86183 4 0 3.10625 0 2ZM0 12C0 10.8938 0.86183 10 1.92857 10H25.0714C26.1382 10 27 10.8938 27 12C27 13.1062 26.1382 14 25.0714 14H1.92857C0.86183 14 0 13.1062 0 12ZM27 22C27 23.1063 26.1382 24 25.0714 24H1.92857C0.86183 24 0 23.1063 0 22C0 20.8937 0.86183 20 1.92857 20H25.0714C26.1382 20 27 20.8937 27 22Z" fill="#4C364B"/>
</svg>
