<svg width="51" height="51" viewBox="0 0 51 51" fill="none" xmlns="http://www.w3.org/2000/svg">
<path d="M25.216 14.9326C18.9568 14.9326 13.7705 20.0294 13.7705 26.3781C13.7705 32.7268 18.8673 37.8236 25.216 37.8236C31.5647 37.8236 36.6615 32.6374 36.6615 26.3781C36.6615 20.1189 31.4753 14.9326 25.216 14.9326ZM25.216 33.7104C21.1922 33.7104 17.8837 30.4019 17.8837 26.3781C17.8837 22.3543 21.1922 19.0458 25.216 19.0458C29.2398 19.0458 32.5483 22.3543 32.5483 26.3781C32.5483 30.4019 29.2398 33.7104 25.216 33.7104Z" fill="#4C364B"/>
<path d="M37.1087 17.2575C38.5409 17.2575 39.7019 16.0966 39.7019 14.6644C39.7019 13.2323 38.5409 12.0713 37.1087 12.0713C35.6766 12.0713 34.5156 13.2323 34.5156 14.6644C34.5156 16.0966 35.6766 17.2575 37.1087 17.2575Z" fill="#4C364B"/>
<path d="M43.8146 7.95813C41.4898 5.54384 38.1813 4.29199 34.4258 4.29199H16.0056C8.22628 4.29199 3.04004 9.47824 3.04004 17.2576V35.5883C3.04004 39.4333 4.29189 42.7417 6.79559 45.156C9.20988 47.4809 12.4289 48.6433 16.0951 48.6433H34.3363C38.1813 48.6433 41.4004 47.3915 43.7252 45.156C46.1395 42.8312 47.3914 39.5227 47.3914 35.6777V17.2576C47.3914 13.502 46.1395 10.283 43.8146 7.95813ZM43.457 35.6777C43.457 38.4497 42.4734 40.6851 40.8638 42.2052C39.2543 43.7253 37.0189 44.5301 34.3363 44.5301H16.0951C13.4125 44.5301 11.1771 43.7253 9.56755 42.2052C7.95803 40.5957 7.15327 38.3602 7.15327 35.5883V17.2576C7.15327 14.5751 7.95803 12.3396 9.56755 10.7301C11.0877 9.20998 13.4125 8.40522 16.0951 8.40522H34.5152C37.1977 8.40522 39.4332 9.20998 41.0427 10.8195C42.5628 12.429 43.457 14.6645 43.457 17.2576V35.6777Z" fill="#4C364B"/>
</svg>
