<svg width="78" height="78" viewBox="0 0 78 78" fill="none" xmlns="http://www.w3.org/2000/svg">
<path d="M58.0884 3.57544H19.911C10.889 3.57544 3.5752 10.8892 3.5752 19.9113V58.0886C3.5752 67.1106 10.889 74.4244 19.911 74.4244H58.0884C67.1104 74.4244 74.4242 67.1106 74.4242 58.0886V19.9113C74.4242 10.8892 67.1104 3.57544 58.0884 3.57544Z" fill="url(#paint0_linear_214_108)"/>
<path d="M50.4257 17.553C53.1153 17.5639 55.6917 18.6371 57.5935 20.539C59.4954 22.4408 60.5686 25.0172 60.5795 27.7067V50.2932C60.5686 52.9828 59.4954 55.5592 57.5935 57.461C55.6917 59.3629 53.1153 60.4361 50.4257 60.4469H27.5742C24.8846 60.4361 22.3082 59.3629 20.4064 57.461C18.5045 55.5592 17.4313 52.9828 17.4205 50.2932V27.7067C17.4313 25.0172 18.5045 22.4408 20.4064 20.539C22.3082 18.6371 24.8846 17.5639 27.5742 17.553H50.4257ZM50.4257 12.8304H27.5742C19.3918 12.8304 12.6963 19.5335 12.6963 27.7083V50.2932C12.6963 58.4756 19.3994 65.1711 27.5742 65.1711H50.4257C58.6081 65.1711 65.3036 58.468 65.3036 50.2932V27.7067C65.3036 19.5244 58.6081 12.8289 50.4257 12.8289V12.8304Z" fill="white"/>
<path d="M38.9997 30.1838C40.7434 30.1838 42.4479 30.7009 43.8977 31.6696C45.3475 32.6384 46.4775 34.0152 47.1448 35.6262C47.812 37.2371 47.9866 39.0098 47.6465 40.7199C47.3063 42.4301 46.4666 44.001 45.2337 45.2339C44.0007 46.4669 42.4298 47.3065 40.7197 47.6467C39.0095 47.9869 37.2369 47.8123 35.6259 47.145C34.015 46.4777 32.6381 45.3478 31.6694 43.898C30.7007 42.4481 30.1836 40.7436 30.1836 39C30.1864 36.6627 31.1162 34.4219 32.7689 32.7691C34.4216 31.1164 36.6624 30.1867 38.9997 30.1838ZM38.9997 25.4612C36.322 25.4612 33.7044 26.2552 31.478 27.7429C29.2515 29.2305 27.5162 31.345 26.4915 33.8189C25.4668 36.2928 25.1987 39.015 25.7211 41.6413C26.2435 44.2675 27.5329 46.6799 29.4264 48.5733C31.3198 50.4668 33.7322 51.7562 36.3584 52.2786C38.9847 52.801 41.7069 52.5329 44.1808 51.5082C46.6547 50.4835 48.7692 48.7482 50.2568 46.5217C51.7445 44.2953 52.5385 41.6777 52.5385 39C52.5385 35.4093 51.1121 31.9656 48.5731 29.4266C46.0341 26.8876 42.5904 25.4612 38.9997 25.4612Z" fill="white"/>
<path d="M52.8339 28.077C54.6067 28.077 56.0438 26.6399 56.0438 24.8671C56.0438 23.0943 54.6067 21.6572 52.8339 21.6572C51.0611 21.6572 49.624 23.0943 49.624 24.8671C49.624 26.6399 51.0611 28.077 52.8339 28.077Z" fill="white"/>
<defs>
<linearGradient id="paint0_linear_214_108" x1="50.0096" y1="77.3982" x2="27.9898" y2="0.601686" gradientUnits="userSpaceOnUse">
<stop stop-color="#FFDB73"/>
<stop offset="0.08" stop-color="#FDAD4E"/>
<stop offset="0.15" stop-color="#FB832E"/>
<stop offset="0.19" stop-color="#FA7321"/>
<stop offset="0.23" stop-color="#F6692F"/>
<stop offset="0.37" stop-color="#E84A5A"/>
<stop offset="0.48" stop-color="#E03675"/>
<stop offset="0.55" stop-color="#DD2F7F"/>
<stop offset="0.68" stop-color="#B43D97"/>
<stop offset="0.97" stop-color="#4D60D4"/>
<stop offset="1" stop-color="#4264DB"/>
</linearGradient>
</defs>
</svg>
