<svg width="314" height="37" viewBox="0 0 314 37" fill="none" xmlns="http://www.w3.org/2000/svg">
<path d="M10.4524 4.98998C10.4955 5.0024 10.54 5.01152 10.5828 5.01668C10.6255 5.02184 10.6654 5.02291 10.6995 5.0198C10.7336 5.01668 10.7611 5.00947 10.78 4.9987C10.7989 4.98793 10.8087 4.97387 10.8087 4.95754C10.7573 4.94272 10.7912 4.8232 11.4332 4.74306C11.8535 4.69064 12.5912 4.66452 13.5208 4.86663C14.3275 5.04205 15.3578 5.40724 16.4564 6.1683C17.4756 6.87435 18.5989 7.95277 19.6523 9.61189C20.0311 10.1353 20.4147 10.8287 20.7799 11.6609C21.1386 12.4781 21.4699 13.4069 21.7577 14.4017C22.2259 16.0201 22.5627 17.7563 22.729 19.4156C22.7727 19.8511 22.8052 20.2867 22.8256 20.7189C22.9201 22.7111 22.7458 24.6222 22.4618 26.2178C22.3256 26.9822 22.1665 27.6614 22.0066 28.2213C21.9281 28.4962 21.8499 28.7409 21.7751 28.9502C21.7011 29.1573 21.6307 29.329 21.5686 29.4572C21.1848 30.3618 20.4739 31.2046 19.5189 31.8612C18.5991 32.4935 17.4634 32.9449 16.2119 33.1026C15.776 33.1489 15.2898 33.164 14.785 33.1147C14.289 33.0662 13.7815 32.9561 13.2855 32.7559C12.7999 32.5599 12.3086 32.2711 11.8366 31.8454C11.37 31.4247 10.8998 30.8501 10.4717 30.0567C10.4699 30.0534 10.4682 30.0501 10.4664 30.0468C10.2011 29.5485 10.0011 28.8863 9.94113 28.0991C9.88603 27.3764 9.95301 26.5823 10.1735 25.8121C10.3808 25.0884 10.7154 24.4166 11.1724 23.8795C11.6028 23.3734 12.1395 22.9885 12.7953 22.7809C12.8709 22.7569 12.9678 22.7237 13.0675 22.6794C13.1183 22.6568 13.1844 22.625 13.256 22.5824C13.3237 22.5421 13.4266 22.4744 13.5309 22.3732C13.5848 22.3209 13.6464 22.2526 13.7045 22.1669C13.7631 22.0808 13.8208 21.9731 13.8615 21.8446C13.9026 21.7142 13.9232 21.5713 13.9147 21.4217C13.9062 21.2725 13.8698 21.1352 13.817 21.0143C13.7652 20.8953 13.7005 20.7986 13.6375 20.7218C13.5755 20.646 13.5123 20.5864 13.4577 20.5411C13.3524 20.4536 13.2519 20.3969 13.1854 20.3631C13.056 20.2975 12.9361 20.2598 12.8674 20.2399C12.7897 20.2173 12.7129 20.1993 12.6467 20.1849C12.5182 20.1571 12.3636 20.1291 12.2186 20.1028C11.9151 20.048 11.553 19.9832 11.1378 19.8878C10.7284 19.7938 10.274 19.6714 9.80399 19.5062C8.87127 19.1783 7.89696 18.6889 7.09498 17.936C6.69794 17.5632 6.33758 17.1209 6.04234 16.5912C5.74776 16.0627 5.51162 15.4359 5.37313 14.6879C5.19353 13.7494 5.20969 12.9696 5.35019 12.3226C5.49051 11.6766 5.75863 11.1482 6.10721 10.7179C6.46294 10.2787 6.91279 9.9281 7.42711 9.65978C7.95331 9.38531 8.54068 9.20109 9.1444 9.10337C10.1579 8.93218 11.2026 8.97575 12.2187 9.23357C13.3584 9.52281 14.4238 10.0707 15.3792 10.8337C16.0349 11.3627 16.5965 11.9716 17.0656 12.5752C17.6113 13.2775 18.0451 13.9894 18.3753 14.6072C18.8105 15.4212 19.1021 16.1382 19.2797 16.6276C19.3885 16.9272 19.4665 17.1742 19.5191 17.355C19.6757 17.8926 19.7279 18.2415 19.7428 18.3272C19.7676 18.4697 19.8527 18.5973 19.9791 18.6819C20.1056 18.7665 20.2632 18.8011 20.4172 18.7783C20.5713 18.7553 20.7093 18.6768 20.8008 18.5598C20.8923 18.4429 20.9298 18.297 20.9052 18.1545C20.8906 18.07 20.8115 17.6524 20.6591 17.0827C20.6068 16.8871 20.5314 16.6169 20.4281 16.2931C20.259 15.7632 19.982 14.9859 19.5547 14.096C19.231 13.4218 18.796 12.6309 18.231 11.8352C17.7466 11.1531 17.1439 10.4356 16.4102 9.78967C15.3598 8.85649 14.1305 8.12004 12.7427 7.67946C11.504 7.28628 10.1845 7.14486 8.8606 7.28623C8.05343 7.37732 7.2289 7.58798 6.45448 7.94552C5.69425 8.29648 4.97729 8.79255 4.38832 9.4517C3.80337 10.1063 3.35614 10.908 3.1088 11.8561C2.86332 12.7972 2.82033 13.8604 3.01095 15.0413C3.17128 16.004 3.46536 16.8539 3.86237 17.6023C4.26036 18.3526 4.75549 18.989 5.30504 19.5278C6.40885 20.6101 7.71447 21.282 8.86156 21.7142C9.44383 21.9336 9.99542 22.095 10.4733 22.2177C10.9536 22.3409 11.3736 22.4284 11.6637 22.4916C11.8141 22.5243 11.923 22.5492 11.9893 22.5677C12.0173 22.5756 12.0393 22.5832 12.0275 22.5813C12.0264 22.5811 11.9733 22.5699 11.8811 22.5235C11.8355 22.5005 11.7523 22.4548 11.6599 22.3781C11.6119 22.3383 11.5542 22.2842 11.4966 22.2139C11.4381 22.1426 11.377 22.0514 11.3274 21.938C11.2771 21.8227 11.2421 21.691 11.2339 21.5474C11.2256 21.4034 11.2455 21.2663 11.2849 21.1416C11.3236 21.0188 11.3785 20.9169 11.433 20.8366C11.4872 20.7568 11.5436 20.6944 11.5914 20.6481C11.6832 20.5589 11.7694 20.5033 11.8157 20.4756C11.8656 20.4457 11.9062 20.4264 11.926 20.4173C11.9671 20.3983 11.9778 20.3956 11.9565 20.4007C10.721 20.7635 9.74893 21.4556 9.02327 22.2787C8.26823 23.1351 7.77016 24.141 7.474 25.1342C7.1574 26.1959 7.05844 27.2814 7.13187 28.2787C7.2115 29.3612 7.49482 30.3672 7.95634 31.211C7.95947 31.2166 7.96255 31.2223 7.96567 31.2279C8.53554 32.263 9.2109 33.0786 9.95479 33.7061C10.7098 34.343 11.5175 34.7709 12.3214 35.0406C13.1339 35.3133 13.9306 35.4206 14.6573 35.4299C15.3941 35.4394 16.0705 35.3484 16.6442 35.2183C18.2823 34.8703 19.6831 34.1319 20.7509 33.2107C21.8613 32.2528 22.6272 31.087 22.9819 29.8806C23.0235 29.7132 23.0714 29.5057 23.121 29.2755C23.1717 29.0404 23.2261 28.7728 23.2816 28.4782C23.3948 27.8775 23.5126 27.165 23.6161 26.3697C23.8322 24.7099 23.9791 22.747 23.9162 20.6826C23.9025 20.2352 23.8793 19.7846 23.8479 19.3344C23.7281 17.6186 23.4839 15.8224 23.1325 14.1118C22.9168 13.0623 22.6638 12.0602 22.3819 11.1518C22.097 10.2332 21.7798 9.40137 21.4363 8.70715C20.3769 6.79857 19.1833 5.43376 18.0012 4.44728C16.7249 3.3823 15.4562 2.75385 14.385 2.37152C13.1695 1.9377 12.1162 1.78961 11.4662 1.72732C10.5405 1.63859 10.1805 1.66266 10.0962 1.63836L10.4524 1.60592C9.96768 1.60619 9.50283 1.78454 9.16017 2.10181C8.81746 2.41913 8.62498 2.84934 8.62498 3.29798C8.62498 3.74656 8.81746 4.17677 9.16017 4.49409C9.50283 4.81137 9.96768 4.98976 10.4524 4.98998Z" fill="#338DC0"/>
<path d="M38.546 4.9292C38.5974 4.91442 38.5635 4.79486 37.9215 4.71476C37.5012 4.6623 36.7635 4.63617 35.8339 4.83829C35.0272 5.01374 33.9969 5.37894 32.8983 6.13995C31.8791 6.84601 30.7558 7.92443 29.7024 9.58355C29.3237 10.107 28.9401 10.8004 28.5748 11.6325C28.2161 12.4498 27.8848 13.3786 27.597 14.3734C27.1289 15.9918 26.792 17.728 26.6257 19.3873C26.582 19.8228 26.5495 20.2584 26.5291 20.6905C26.4346 22.6828 26.6089 24.5939 26.893 26.1894C27.0291 26.9538 27.1883 27.6331 27.3481 28.193C27.4266 28.4678 27.5049 28.7125 27.5796 28.9219C27.6536 29.1289 27.724 29.3007 27.7862 29.4289C28.1699 30.3335 28.8808 31.1763 29.8359 31.8329C30.7556 32.4652 31.8913 32.9166 33.1428 33.0743C33.5787 33.1205 34.065 33.1357 34.5697 33.0863C35.0657 33.0379 35.5732 32.9278 36.0692 32.7276C36.5548 32.5316 37.0461 32.2428 37.5181 31.8171C37.9847 31.3964 38.4549 30.8217 38.8831 30.0284C38.8848 30.0251 38.8866 30.0218 38.8883 30.0185C39.1536 29.5202 39.3536 28.8579 39.4136 28.0707C39.4687 27.3481 39.4017 26.554 39.1812 25.7838C38.9739 25.0601 38.6394 24.3883 38.1823 23.8512C37.7519 23.3451 37.2152 22.9601 36.5595 22.7525C36.4838 22.7286 36.3869 22.6953 36.2872 22.651C36.2365 22.6285 36.1703 22.5967 36.0987 22.5541C36.031 22.5138 35.9281 22.4461 35.8238 22.3448C35.7699 22.2925 35.7083 22.2242 35.6502 22.1386C35.5916 22.0524 35.5339 21.9448 35.4933 21.8162C35.4521 21.6858 35.4315 21.543 35.44 21.3934C35.4485 21.2442 35.4849 21.1069 35.5377 20.9859C35.5896 20.867 35.6542 20.7702 35.7172 20.6935C35.7793 20.6176 35.8424 20.5581 35.897 20.5128C36.0023 20.4253 36.1028 20.3685 36.1693 20.3348C36.2987 20.2692 36.4186 20.2315 36.4873 20.2115C36.565 20.1889 36.6418 20.1709 36.708 20.1566C36.8365 20.1287 36.9911 20.1007 37.1361 20.0745C37.4396 20.0197 37.8017 19.9548 38.2169 19.8595C38.6263 19.7654 39.0807 19.643 39.5507 19.4779C40.4834 19.15 41.4578 18.6606 42.2597 17.9076C42.6568 17.5349 43.0171 17.0926 43.3124 16.5629C43.607 16.0344 43.8431 15.4076 43.9816 14.6596C44.1612 13.721 44.145 12.9413 44.0045 12.2943C43.8642 11.6482 43.5961 11.1199 43.2475 10.6895C42.8918 10.2504 42.4419 9.89975 41.9276 9.63147C41.4014 9.35696 40.814 9.17274 40.2103 9.07507C39.1969 8.90388 38.1521 8.94744 37.136 9.20527C35.9963 9.49446 34.9309 10.0424 33.9755 10.8053C33.3198 11.3343 32.7582 11.9433 32.2892 12.5469C31.7434 13.2492 31.3097 13.9611 30.9794 14.5788C30.5442 15.3928 30.2526 16.1099 30.075 16.5993C29.9662 16.8989 29.8882 17.1458 29.8356 17.3266C29.6791 17.8643 29.6268 18.2132 29.6119 18.2989C29.5604 18.5959 29.2584 18.798 28.9374 18.7503C28.6164 18.7026 28.398 18.4232 28.4495 18.1261C28.4642 18.0417 28.5432 17.6241 28.6956 17.0544C28.748 16.8588 28.8233 16.5885 28.9266 16.2647C29.0957 15.7349 29.3728 14.9576 29.8 14.0677C30.1237 13.3935 30.5587 12.6025 31.1237 11.8069C31.6082 11.1248 32.2108 10.4073 32.9446 9.76136C33.9949 8.82815 35.2242 8.0917 36.6121 7.65112C37.8507 7.25793 39.1702 7.11651 40.4941 7.25789C41.3013 7.34902 42.1258 7.55963 42.9002 7.91717C43.6605 8.26813 44.3774 8.76425 44.9664 9.42336C45.5513 10.078 45.9986 10.8796 46.2459 11.8278C46.4914 12.7688 46.5344 13.8321 46.3438 15.013C46.1834 15.9756 45.8893 16.8255 45.4923 17.574C45.0943 18.3243 44.5992 18.9607 44.0497 19.4995C42.9459 20.5817 41.6402 21.2536 40.4932 21.6859C39.9109 21.9052 39.3593 22.0667 38.8814 22.1894C38.4011 22.3126 37.9811 22.4001 37.691 22.4632C37.5406 22.496 37.4317 22.5208 37.3654 22.5394C37.3374 22.5473 37.3154 22.5549 37.3273 22.5529C37.3283 22.5527 37.3814 22.5415 37.4736 22.4952C37.5192 22.4722 37.6024 22.4265 37.6949 22.3498C37.7428 22.31 37.8005 22.2559 37.8582 22.1856C37.9166 22.1143 37.9778 22.0231 38.0273 21.9097C38.0776 21.7943 38.1126 21.6626 38.1208 21.5191C38.1291 21.3751 38.1092 21.2379 38.0699 21.1133C38.0311 20.9904 37.9763 20.8886 37.9217 20.8083C37.8675 20.7285 37.8111 20.6661 37.7633 20.6197C37.6715 20.5305 37.5854 20.475 37.5391 20.4472C37.4891 20.4173 37.4486 20.398 37.4287 20.3889C37.3876 20.37 37.3769 20.3673 37.3983 20.3723C38.6337 20.7352 39.6058 21.4273 40.3314 22.2504C41.0865 23.1067 41.5846 24.1127 41.8807 25.1058C42.1973 26.1675 42.2963 27.2531 42.2229 28.2504C42.1432 29.3329 41.8599 30.3388 41.3984 31.1827C41.3953 31.1883 41.3922 31.194 41.389 31.1996C40.8192 32.2347 40.1439 33.0503 39.3999 33.6777C38.6449 34.3146 37.8372 34.7425 37.0333 35.0123C36.2208 35.2849 35.4241 35.3923 34.6974 35.4016C33.9606 35.4111 33.2842 35.32 32.7105 35.1899C31.0724 34.842 29.6716 34.1035 28.6039 33.1824C27.4935 32.2244 26.7275 31.0587 26.3728 29.8522C26.3312 29.6849 26.2833 29.4774 26.2337 29.2472C26.1831 29.012 26.1286 28.7444 26.0732 28.4498C25.96 27.8492 25.8421 27.1367 25.7386 26.3413C25.5225 24.6815 25.3756 22.7186 25.4385 20.6543C25.4522 20.2068 25.4754 19.7563 25.5068 19.3061C25.6266 17.5903 25.8709 15.794 26.2223 14.0835C26.4379 13.034 26.691 12.0319 26.9728 11.1234C27.2577 10.2049 27.5749 9.37307 27.9184 8.67885C28.9778 6.77023 30.1715 5.40542 31.3535 4.41893C32.6298 3.35395 33.8985 2.7255 34.9697 2.34317C36.1853 1.90936 37.2385 1.76131 37.8885 1.69897C38.8142 1.61024 39.1743 1.63431 39.2586 1.61002C40.249 1.79211 40.8924 2.68274 40.6956 3.59927C40.4989 4.51585 39.5365 5.11128 38.546 4.9292Z" fill="#CB3D98"/>
<path d="M149.619 30.0651C149.193 30.0651 148.845 29.9717 148.576 29.7848C148.306 29.5979 148.093 29.3176 147.936 28.9438L138.68 9.35113C138.522 8.99813 138.478 8.70737 138.545 8.47896C138.612 8.22977 138.758 8.03251 138.983 7.88714C139.229 7.74176 139.51 7.66909 139.824 7.66909C140.251 7.66909 140.565 7.76254 140.767 7.94943C140.991 8.11555 141.17 8.36474 141.305 8.69701L150.191 27.7913H149.114L157.967 8.66586C158.124 8.35437 158.314 8.11555 158.539 7.94943C158.764 7.76254 159.078 7.66909 159.482 7.66909C159.796 7.66909 160.054 7.74176 160.256 7.88714C160.48 8.03251 160.615 8.22977 160.66 8.47896C160.727 8.72816 160.682 9.01886 160.525 9.35113L151.268 28.9438C151.111 29.3176 150.898 29.5979 150.629 29.7848C150.382 29.9717 150.046 30.0651 149.619 30.0651ZM167.015 30.1274C165.893 30.1274 164.883 29.9302 163.986 29.5356C163.111 29.1203 162.415 28.5596 161.899 27.8536C161.383 27.1475 161.125 26.3584 161.125 25.4862C161.125 24.3649 161.428 23.4823 162.033 22.8386C162.662 22.1948 163.683 21.738 165.096 21.468C166.533 21.1981 168.485 21.0631 170.953 21.0631H172.468V22.714H170.987C169.169 22.714 167.733 22.7971 166.679 22.9632C165.646 23.1086 164.917 23.3681 164.491 23.7419C164.087 24.1157 163.885 24.6452 163.885 25.3305C163.885 26.1819 164.199 26.8776 164.827 27.4175C165.478 27.9574 166.353 28.2273 167.453 28.2273C168.35 28.2273 169.136 28.0301 169.809 27.6355C170.505 27.2409 171.043 26.701 171.425 26.0158C171.828 25.3305 172.03 24.5414 172.03 23.6485V20.0975C172.03 18.81 171.75 17.8859 171.189 17.3252C170.628 16.7438 169.708 16.4531 168.429 16.4531C167.644 16.4531 166.858 16.5465 166.073 16.7334C165.287 16.9203 164.457 17.2214 163.582 17.6367C163.268 17.7821 162.999 17.834 162.774 17.7925C162.549 17.7302 162.37 17.6159 162.235 17.4498C162.101 17.2837 162.022 17.0968 162 16.8892C161.977 16.6607 162.022 16.4427 162.134 16.235C162.269 16.0274 162.471 15.8612 162.74 15.7367C163.727 15.2798 164.704 14.9476 165.669 14.7399C166.634 14.5322 167.554 14.4284 168.429 14.4284C169.843 14.4284 171.01 14.6464 171.929 15.0825C172.849 15.4978 173.534 16.1416 173.983 17.0138C174.431 17.8651 174.656 18.9658 174.656 20.3155V28.7569C174.656 29.1722 174.544 29.4941 174.319 29.7225C174.117 29.9509 173.814 30.0651 173.411 30.0651C172.984 30.0651 172.659 29.9509 172.434 29.7225C172.21 29.4941 172.098 29.1722 172.098 28.7569V26.3273H172.401C172.221 27.1164 171.873 27.7913 171.357 28.3519C170.863 28.9126 170.246 29.3487 169.506 29.6602C168.765 29.9717 167.935 30.1274 167.015 30.1274ZM181.094 30.0651C180.645 30.0651 180.297 29.9509 180.051 29.7225C179.826 29.4941 179.714 29.1722 179.714 28.7569V15.7678C179.714 15.3525 179.826 15.041 180.051 14.8333C180.275 14.6049 180.6 14.4907 181.027 14.4907C181.453 14.4907 181.778 14.6049 182.003 14.8333C182.25 15.041 182.373 15.3525 182.373 15.7678V18.2909H182.037C182.396 17.0657 183.08 16.1208 184.09 15.4563C185.1 14.7918 186.345 14.4388 187.826 14.3972C188.163 14.3765 188.432 14.4492 188.634 14.6153C188.836 14.7607 188.948 15.0202 188.971 15.394C188.993 15.747 188.903 16.0274 188.701 16.235C188.499 16.4427 188.185 16.5673 187.759 16.6088L187.22 16.6711C185.695 16.7957 184.516 17.2526 183.686 18.0417C182.878 18.81 182.474 19.8691 182.474 21.2189V28.7569C182.474 29.1722 182.351 29.4941 182.104 29.7225C181.879 29.9509 181.543 30.0651 181.094 30.0651ZM193.124 30.0028C192.676 30.0028 192.339 29.8886 192.114 29.6602C191.89 29.411 191.778 29.0684 191.778 28.6323V15.8924C191.778 15.4563 191.89 15.124 192.114 14.8956C192.339 14.6672 192.676 14.553 193.124 14.553C193.551 14.553 193.887 14.6672 194.134 14.8956C194.381 15.124 194.504 15.4563 194.504 15.8924V28.6323C194.504 29.0684 194.381 29.411 194.134 29.6602C193.909 29.8886 193.573 30.0028 193.124 30.0028ZM193.124 11.0643C192.563 11.0643 192.125 10.9294 191.812 10.6594C191.498 10.3687 191.34 9.98448 191.34 9.50688C191.34 9.0085 191.498 8.63471 191.812 8.38552C192.125 8.11555 192.563 7.98058 193.124 7.98058C193.708 7.98058 194.145 8.11555 194.437 8.38552C194.751 8.63471 194.908 9.0085 194.908 9.50688C194.908 9.98448 194.751 10.3687 194.437 10.6594C194.145 10.9294 193.708 11.0643 193.124 11.0643ZM206.972 30.1274C205.245 30.1274 203.753 29.8159 202.496 29.193C201.262 28.5492 200.297 27.6459 199.601 26.483C198.928 25.3201 198.591 23.9288 198.591 22.3091C198.591 20.7308 198.928 19.3603 199.601 18.1974C200.274 17.0138 201.194 16.0897 202.361 15.4252C203.551 14.7607 204.919 14.4284 206.468 14.4284C207.567 14.4284 208.554 14.6049 209.43 14.9579C210.305 15.2902 211.045 15.7782 211.651 16.4219C212.28 17.0657 212.751 17.8444 213.065 18.7581C213.402 19.6718 213.57 20.6997 213.57 21.8418C213.57 22.1741 213.469 22.4233 213.267 22.5894C213.065 22.7348 212.774 22.8074 212.392 22.8074H200.678V21.1566H211.752L211.214 21.5615C211.214 20.4401 211.034 19.4953 210.675 18.7269C210.316 17.9379 209.789 17.3356 209.093 16.9203C208.42 16.505 207.567 16.2973 206.535 16.2973C205.39 16.2973 204.414 16.5465 203.606 17.0449C202.821 17.5225 202.226 18.1974 201.822 19.0696C201.419 19.921 201.217 20.9177 201.217 22.0599V22.2468C201.217 24.1572 201.71 25.6108 202.698 26.6076C203.707 27.6044 205.133 28.1028 206.972 28.1028C207.736 28.1028 208.487 28.0093 209.228 27.8224C209.991 27.6355 210.731 27.324 211.449 26.8879C211.764 26.701 212.044 26.618 212.291 26.6388C212.56 26.6388 212.774 26.7114 212.93 26.8568C213.088 26.9814 213.188 27.1475 213.233 27.3552C213.301 27.5421 213.278 27.7497 213.166 27.9782C213.076 28.2066 212.886 28.4039 212.594 28.57C211.853 29.0684 210.978 29.4525 209.968 29.7225C208.958 29.9925 207.96 30.1274 206.972 30.1274ZM223.743 30.1274C222.284 30.1274 221.005 29.8056 219.906 29.1618C218.828 28.5181 217.987 27.6147 217.381 26.4519C216.798 25.2682 216.506 23.8769 216.506 22.2779C216.506 20.6582 216.798 19.2668 217.381 18.104C217.987 16.9203 218.828 16.017 219.906 15.394C221.005 14.7503 222.284 14.4284 223.743 14.4284C225.224 14.4284 226.492 14.771 227.546 15.4563C228.601 16.1416 229.308 17.0657 229.667 18.2286H229.297V8.9462C229.297 8.53089 229.409 8.21941 229.633 8.01173C229.881 7.78332 230.228 7.66909 230.677 7.66909C231.103 7.66909 231.429 7.78332 231.653 8.01173C231.9 8.21941 232.023 8.53089 232.023 8.9462V28.7569C232.023 29.1722 231.911 29.4941 231.687 29.7225C231.463 29.9509 231.126 30.0651 230.677 30.0651C230.251 30.0651 229.914 29.9509 229.667 29.7225C229.443 29.4941 229.33 29.1722 229.33 28.7569V25.7977L229.701 26.2338C229.342 27.4175 228.624 28.3623 227.546 29.0684C226.492 29.7744 225.224 30.1274 223.743 30.1274ZM224.315 28.1028C225.325 28.1028 226.212 27.8743 226.974 27.4175C227.737 26.9606 228.321 26.2961 228.725 25.4239C229.151 24.5518 229.364 23.5031 229.364 22.2779C229.364 20.3882 228.904 18.945 227.984 17.9482C227.087 16.9515 225.863 16.4531 224.315 16.4531C223.283 16.4531 222.385 16.6815 221.622 17.1383C220.882 17.5744 220.298 18.2286 219.872 19.1007C219.468 19.9521 219.266 21.0112 219.266 22.2779C219.266 24.1468 219.726 25.5901 220.646 26.6076C221.566 27.6044 222.789 28.1028 224.315 28.1028ZM242.29 30.1274C241.168 30.1274 240.158 29.9302 239.261 29.5356C238.385 29.1203 237.69 28.5596 237.174 27.8536C236.658 27.1475 236.399 26.3584 236.399 25.4862C236.399 24.3649 236.702 23.4823 237.308 22.8386C237.937 22.1948 238.958 21.738 240.371 21.468C241.808 21.1981 243.76 21.0631 246.228 21.0631H247.743V22.714H246.262C244.444 22.714 243.008 22.7971 241.953 22.9632C240.921 23.1086 240.192 23.3681 239.765 23.7419C239.362 24.1157 239.16 24.6452 239.16 25.3305C239.16 26.1819 239.474 26.8776 240.102 27.4175C240.753 27.9574 241.628 28.2273 242.728 28.2273C243.625 28.2273 244.411 28.0301 245.084 27.6355C245.78 27.2409 246.318 26.701 246.699 26.0158C247.103 25.3305 247.305 24.5414 247.305 23.6485V20.0975C247.305 18.81 247.025 17.8859 246.464 17.3252C245.903 16.7438 244.983 16.4531 243.704 16.4531C242.918 16.4531 242.133 16.5465 241.348 16.7334C240.562 16.9203 239.732 17.2214 238.857 17.6367C238.543 17.7821 238.273 17.834 238.049 17.7925C237.824 17.7302 237.645 17.6159 237.51 17.4498C237.376 17.2837 237.297 17.0968 237.275 16.8892C237.252 16.6607 237.297 16.4427 237.409 16.235C237.544 16.0274 237.746 15.8612 238.015 15.7367C239.002 15.2798 239.979 14.9476 240.944 14.7399C241.909 14.5322 242.829 14.4284 243.704 14.4284C245.117 14.4284 246.284 14.6464 247.204 15.0825C248.124 15.4978 248.809 16.1416 249.258 17.0138C249.706 17.8651 249.931 18.9658 249.931 20.3155V28.7569C249.931 29.1722 249.819 29.4941 249.594 29.7225C249.392 29.9509 249.089 30.0651 248.685 30.0651C248.259 30.0651 247.934 29.9509 247.709 29.7225C247.485 29.4941 247.373 29.1722 247.373 28.7569V26.3273H247.676C247.496 27.1164 247.148 27.7913 246.632 28.3519C246.138 28.9126 245.521 29.3487 244.781 29.6602C244.04 29.9717 243.21 30.1274 242.29 30.1274ZM261.216 30.1274C259.758 30.1274 258.479 29.8056 257.379 29.1618C256.302 28.5181 255.46 27.6147 254.854 26.4519C254.271 25.2682 253.979 23.8769 253.979 22.2779C253.979 20.6582 254.271 19.2668 254.854 18.104C255.46 16.9203 256.302 16.017 257.379 15.394C258.479 14.7503 259.758 14.4284 261.216 14.4284C262.697 14.4284 263.965 14.771 265.02 15.4563C266.074 16.1416 266.781 17.0657 267.14 18.2286H266.77V8.9462C266.77 8.53089 266.882 8.21941 267.107 8.01173C267.353 7.78332 267.701 7.66909 268.15 7.66909C268.577 7.66909 268.902 7.78332 269.126 8.01173C269.373 8.21941 269.496 8.53089 269.496 8.9462V28.7569C269.496 29.1722 269.384 29.4941 269.16 29.7225C268.935 29.9509 268.599 30.0651 268.15 30.0651C267.724 30.0651 267.387 29.9509 267.14 29.7225C266.916 29.4941 266.804 29.1722 266.804 28.7569V25.7977L267.174 26.2338C266.815 27.4175 266.097 28.3623 265.02 29.0684C263.965 29.7744 262.697 30.1274 261.216 30.1274ZM261.788 28.1028C262.798 28.1028 263.684 27.8743 264.447 27.4175C265.211 26.9606 265.794 26.2961 266.198 25.4239C266.624 24.5518 266.837 23.5031 266.837 22.2779C266.837 20.3882 266.377 18.945 265.457 17.9482C264.559 16.9515 263.337 16.4531 261.788 16.4531C260.756 16.4531 259.859 16.6815 259.095 17.1383C258.355 17.5744 257.772 18.2286 257.345 19.1007C256.941 19.9521 256.739 21.0112 256.739 22.2779C256.739 24.1468 257.199 25.5901 258.119 26.6076C259.039 27.6044 260.263 28.1028 261.788 28.1028ZM281.985 30.1274C280.257 30.1274 278.764 29.8159 277.508 29.193C276.274 28.5492 275.309 27.6459 274.613 26.483C273.94 25.3201 273.603 23.9288 273.603 22.3091C273.603 20.7308 273.94 19.3603 274.613 18.1974C275.286 17.0138 276.206 16.0897 277.373 15.4252C278.563 14.7607 279.932 14.4284 281.48 14.4284C282.579 14.4284 283.567 14.6049 284.442 14.9579C285.317 15.2902 286.058 15.7782 286.664 16.4219C287.292 17.0657 287.763 17.8444 288.077 18.7581C288.414 19.6718 288.582 20.6997 288.582 21.8418C288.582 22.1741 288.481 22.4233 288.279 22.5894C288.077 22.7348 287.785 22.8074 287.404 22.8074H275.69V21.1566H286.764L286.226 21.5615C286.226 20.4401 286.046 19.4953 285.687 18.7269C285.328 17.9379 284.801 17.3356 284.105 16.9203C283.432 16.505 282.579 16.2973 281.547 16.2973C280.403 16.2973 279.427 16.5465 278.619 17.0449C277.833 17.5225 277.239 18.1974 276.835 19.0696C276.431 19.921 276.229 20.9177 276.229 22.0599V22.2468C276.229 24.1572 276.722 25.6108 277.71 26.6076C278.72 27.6044 280.145 28.1028 281.985 28.1028C282.747 28.1028 283.499 28.0093 284.24 27.8224C285.003 27.6355 285.743 27.324 286.462 26.8879C286.776 26.701 287.056 26.618 287.303 26.6388C287.572 26.6388 287.785 26.7114 287.943 26.8568C288.099 26.9814 288.2 27.1475 288.246 27.3552C288.313 27.5421 288.29 27.7497 288.178 27.9782C288.088 28.2066 287.897 28.4039 287.606 28.57C286.865 29.0684 285.99 29.4525 284.981 29.7225C283.971 29.9925 282.972 30.1274 281.985 30.1274ZM298.048 30.1274C297.038 30.1274 296.017 30.0132 294.985 29.7848C293.975 29.5564 293.033 29.1618 292.157 28.6011C291.933 28.4558 291.776 28.2896 291.686 28.1028C291.597 27.8951 291.563 27.6978 291.585 27.5109C291.63 27.3032 291.72 27.1268 291.854 26.9814C292.012 26.836 292.191 26.753 292.393 26.7322C292.618 26.6907 292.864 26.7322 293.133 26.8568C294.009 27.3552 294.85 27.7082 295.658 27.9159C296.488 28.1028 297.307 28.1962 298.115 28.1962C299.394 28.1962 300.359 27.9782 301.01 27.5421C301.661 27.106 301.986 26.5142 301.986 25.7666C301.986 25.1851 301.773 24.7283 301.347 24.396C300.92 24.043 300.247 23.7731 299.327 23.5862L296.264 22.9632C294.85 22.6932 293.796 22.226 293.1 21.5615C292.427 20.897 292.09 20.0352 292.09 18.9761C292.09 18.0417 292.348 17.2422 292.864 16.5777C293.403 15.8924 294.155 15.3629 295.119 14.9891C296.084 14.6153 297.206 14.4284 298.485 14.4284C299.473 14.4284 300.404 14.553 301.279 14.8022C302.177 15.0306 302.985 15.4044 303.703 15.9235C303.927 16.0689 304.073 16.2454 304.14 16.4531C304.23 16.64 304.241 16.8372 304.174 17.0449C304.129 17.2318 304.028 17.3979 303.871 17.5433C303.714 17.6679 303.523 17.7405 303.299 17.7613C303.075 17.7821 302.839 17.7198 302.592 17.5744C301.919 17.1591 301.234 16.858 300.539 16.6711C299.843 16.4634 299.159 16.3596 298.485 16.3596C297.229 16.3596 296.275 16.588 295.624 17.0449C294.974 17.5018 294.648 18.104 294.648 18.8515C294.648 19.433 294.85 19.9106 295.254 20.2844C295.658 20.6582 296.286 20.9281 297.139 21.0943L300.202 21.6861C301.661 21.9768 302.749 22.444 303.467 23.0878C304.208 23.7108 304.578 24.5621 304.578 25.642C304.578 27.0125 303.984 28.1028 302.794 28.9126C301.605 29.7225 300.023 30.1274 298.048 30.1274Z" fill="#338DC0"/>
<path d="M59.4293 30.0963C58.7787 30.0963 58.2738 29.9302 57.9146 29.5979C57.578 29.2656 57.4097 28.788 57.4097 28.165V9.63147C57.4097 8.98771 57.578 8.49975 57.9146 8.16748C58.2738 7.81447 58.7335 7.63795 59.2946 7.63795C59.8106 7.63795 60.1924 7.73139 60.4391 7.91828C60.7084 8.0844 61.0224 8.37515 61.3816 8.79045L74.2733 24.2714H73.3982V9.53803C73.3982 8.93583 73.5665 8.4686 73.9031 8.13633C74.2623 7.80406 74.7672 7.63795 75.4178 7.63795C76.0684 7.63795 76.5622 7.80406 76.8988 8.13633C77.2354 8.4686 77.4037 8.93583 77.4037 9.53803V28.2273C77.4037 28.8088 77.2465 29.2656 76.9325 29.5979C76.6185 29.9302 76.192 30.0963 75.6534 30.0963C75.1374 30.0963 74.722 30.0028 74.408 29.8159C74.1161 29.629 73.791 29.3279 73.4318 28.9126L60.5737 13.4316H61.4152V28.165C61.4152 28.788 61.2469 29.2656 60.9103 29.5979C60.5737 29.9302 60.0799 30.0963 59.4293 30.0963ZM84.8777 29.8471C84.1372 29.8471 83.565 29.6706 83.161 29.3176C82.7797 28.9438 82.5888 28.4142 82.5888 27.729V10.0053C82.5888 9.31998 82.7797 8.80082 83.161 8.44782C83.565 8.07403 84.1372 7.88714 84.8777 7.88714H96.8943C97.4555 7.88714 97.882 8.0221 98.1734 8.29207C98.4879 8.56204 98.6446 8.9462 98.6446 9.44458C98.6446 9.96374 98.4879 10.3687 98.1734 10.6594C97.882 10.9294 97.4555 11.0643 96.8943 11.0643H86.729V17.1072H96.1538C96.7376 17.1072 97.1751 17.2422 97.4665 17.5121C97.7584 17.7821 97.9041 18.1766 97.9041 18.6958C97.9041 19.215 97.7584 19.6095 97.4665 19.8794C97.1751 20.1494 96.7376 20.2844 96.1538 20.2844H86.729V26.6699H96.8943C97.4555 26.6699 97.882 26.8049 98.1734 27.0748C98.4879 27.3448 98.6446 27.7393 98.6446 28.2585C98.6446 28.7777 98.4879 29.1722 98.1734 29.4421C97.882 29.7121 97.4555 29.8471 96.8943 29.8471H84.8777ZM110.385 30.0963C109.689 30.0963 109.151 29.9198 108.77 29.5667C108.41 29.193 108.231 28.6842 108.231 28.0405V11.2201H101.667C101.084 11.2201 100.624 11.0747 100.287 10.784C99.9733 10.4725 99.816 10.0572 99.816 9.53803C99.816 8.99813 99.9733 8.59319 100.287 8.32322C100.624 8.03251 101.084 7.88714 101.667 7.88714H119.103C119.686 7.88714 120.136 8.03251 120.45 8.32322C120.786 8.59319 120.955 8.99813 120.955 9.53803C120.955 10.0572 120.786 10.4725 120.45 10.784C120.136 11.0747 119.686 11.2201 119.103 11.2201H112.54V28.0405C112.54 28.6842 112.36 29.193 112.001 29.5667C111.642 29.9198 111.103 30.0963 110.385 30.0963ZM121.021 30.0963C120.482 30.0963 120.045 29.982 119.708 29.7536C119.394 29.5252 119.203 29.2241 119.136 28.8503C119.069 28.4558 119.147 28.0197 119.372 27.5421L128.258 9.31998C128.55 8.71779 128.897 8.29207 129.301 8.04288C129.728 7.77291 130.21 7.63795 130.749 7.63795C131.265 7.63795 131.725 7.77291 132.129 8.04288C132.555 8.29207 132.914 8.71779 133.206 9.31998L142.126 27.5421C142.372 28.0197 142.462 28.4558 142.395 28.8503C142.328 29.2449 142.137 29.5564 141.823 29.7848C141.509 29.9925 141.093 30.0963 140.577 30.0963C139.949 30.0963 139.456 29.9613 139.096 29.6913C138.76 29.4006 138.457 28.9646 138.187 28.3831L136 23.6796L137.817 24.7698H123.613L125.43 23.6796L123.276 28.3831C122.984 28.9853 122.681 29.4214 122.367 29.6913C122.053 29.9613 121.604 30.0963 121.021 30.0963ZM130.681 12.2168L125.969 22.5894L125.094 21.5926H136.336L135.495 22.5894L130.749 12.2168H130.681Z" fill="#CB3D98"/>
</svg>
