<svg width="37" height="37" viewBox="0 0 37 37" fill="none" xmlns="http://www.w3.org/2000/svg">
<path fill-rule="evenodd" clip-rule="evenodd" d="M30.2696 6.99224C27.2341 3.95324 23.1973 2.27889 18.8964 2.27713C10.0345 2.27713 2.82189 9.48917 2.81843 18.3538C2.81719 21.1875 3.55754 23.9534 4.96456 26.3916L2.68359 34.723L11.2067 32.4872C13.555 33.7681 16.1991 34.4432 18.89 34.4441H18.8965C18.896 34.4441 18.897 34.4441 18.8965 34.4441C27.7574 34.4441 34.9706 27.2314 34.9744 18.3666C34.9759 14.0706 33.3051 10.0311 30.2696 6.99224ZM18.8964 31.7288H18.891C16.4932 31.7279 14.1413 31.0836 12.0895 29.8662L11.6016 29.5766L6.54388 30.9033L7.89393 25.9721L7.57616 25.4664C6.23851 23.3388 5.53203 20.8797 5.53308 18.3547C5.53595 10.9868 11.5308 4.99256 18.9018 4.99256C22.4711 4.99367 25.8264 6.38555 28.3494 8.91145C30.8724 11.4374 32.2611 14.7949 32.2596 18.3655C32.2566 25.734 26.262 31.7288 18.8964 31.7288Z" fill="white"/>
<path fill-rule="evenodd" clip-rule="evenodd" d="M26.2266 21.7204C25.8249 21.5194 23.8498 20.5477 23.4816 20.4135C23.1133 20.2794 22.8455 20.2124 22.5777 20.6145C22.3099 21.0166 21.54 21.9216 21.3057 22.1898C21.0714 22.4577 20.8369 22.4915 20.4353 22.2902C20.0336 22.0891 18.7392 21.665 17.2047 20.2963C16.0104 19.231 15.2042 17.9156 14.9698 17.5133C14.7355 17.1112 14.9449 16.8938 15.146 16.6934C15.3267 16.5134 15.5478 16.2243 15.7486 15.9896C15.9495 15.7551 16.0164 15.5874 16.1503 15.3195C16.2843 15.0513 16.2174 14.8167 16.1169 14.6157C16.0164 14.4146 15.213 12.4373 14.8783 11.6328C14.5521 10.8495 14.2209 10.9556 13.9743 10.9432C13.7403 10.9315 13.4722 10.9291 13.2044 10.9291C12.9366 10.9291 12.5013 11.0296 12.1332 11.4317C11.7649 11.834 10.7271 12.8059 10.7271 14.7831C10.7271 16.7605 12.1666 18.6708 12.3675 18.9388C12.5683 19.2071 15.2002 23.2647 19.2301 25.0048C20.1886 25.4187 20.9369 25.6659 21.5203 25.851C22.4827 26.1568 23.3585 26.1136 24.0507 26.0102C24.8225 25.8948 26.4275 25.0384 26.7622 24.1001C27.097 23.1616 27.097 22.3572 26.9965 22.1897C26.8962 22.0222 26.6283 21.9216 26.2266 21.7204Z" fill="white"/>
</svg>
