<svg width="76" height="76" viewBox="0 0 76 76" fill="none" xmlns="http://www.w3.org/2000/svg">
<g clip-path="url(#clip0_214_96)">
<path fill-rule="evenodd" clip-rule="evenodd" d="M27.3802 19.3022C26.6433 17.5376 26.0846 17.4705 24.9684 17.4254C24.5884 17.4034 24.165 17.3814 23.6954 17.3814C22.2431 17.3814 20.7248 17.806 19.8087 18.7441C18.6924 19.8835 15.9226 22.5417 15.9226 27.9923C15.9226 33.4436 19.8978 38.7155 20.4339 39.4535C20.9926 40.1898 28.1841 51.5387 39.3508 56.164C48.0831 59.7829 50.6742 59.4474 52.6615 59.0235C55.5649 58.3983 59.2052 56.2525 60.1213 53.6619C61.0369 51.0702 61.0369 48.8585 60.7685 48.3894C60.5008 47.9204 59.7633 47.6532 58.6471 47.0939C57.5308 46.5352 52.1033 43.8544 51.0762 43.4969C50.0709 43.1175 49.1108 43.2517 48.352 44.324C47.2797 45.8209 46.2306 47.3403 45.3815 48.2558C44.7118 48.9707 43.6169 49.0604 42.7013 48.6804C41.4728 48.1674 38.0338 46.9597 33.7903 43.1846C30.5069 40.2586 28.2738 36.6177 27.6266 35.5229C26.9788 34.406 27.5595 33.7577 28.0731 33.155C28.6318 32.4621 29.1674 31.9711 29.7255 31.3227C30.2842 30.6749 30.5965 30.34 30.954 29.58C31.334 28.8432 31.0656 28.0832 30.7978 27.5245C30.5294 26.9646 28.2963 21.5133 27.3802 19.3022ZM37.9887 0C17.04 0 0 17.0448 0 37.9994C0 46.3095 2.68019 54.017 7.23603 60.2722L2.50087 74.3909L17.1071 69.7229C23.1147 73.6992 30.2836 76 38.0113 76C58.96 76 76 58.954 76 38.0006C76 17.046 58.96 0.0011875 38.0113 0.0011875H37.9893L37.9887 0Z" fill="#67C15E"/>
</g>
<defs>
<clipPath id="clip0_214_96">
<rect width="76" height="76" fill="white"/>
</clipPath>
</defs>
</svg>
