<svg width="23" height="31" viewBox="0 0 23 31" fill="none" xmlns="http://www.w3.org/2000/svg">
<path d="M20.5203 9.11838C21.269 8.36155 21.269 7.13245 20.5203 6.37561C19.7716 5.61877 18.5557 5.61877 17.807 6.37561L11.5 12.7573L5.18698 6.38166C4.43828 5.62483 3.22239 5.62483 2.47369 6.38166C1.725 7.1385 1.725 8.3676 2.47369 9.12444L8.78671 15.5L2.47968 21.8817C1.73099 22.6385 1.73099 23.8676 2.47968 24.6244C3.22838 25.3813 4.44427 25.3813 5.19296 24.6244L11.5 18.2428L17.813 24.6184C18.5617 25.3752 19.7776 25.3752 20.5263 24.6184C21.275 23.8615 21.275 22.6324 20.5263 21.8756L14.2133 15.5L20.5203 9.11838Z" fill="#4c364b"/>
</svg>
